<?xml version="1.0" encoding="UTF-8"?> <svg xmlns="http://www.w3.org/2000/svg" width="211" height="52" viewBox="0 0 211 52" fill="none"> <path d="M15.8172 9.27051C26.0443 9.27051 33.907 16.1565 33.907 26.3778C33.907 36.6528 26.0443 43.6999 15.8172 43.6999H4.32562C2.01623 43.6999 0.0917969 42.1937 0.0917969 39.5576V13.5742C0.0917969 10.9381 2.01623 9.27051 4.32562 9.27051H15.8172V9.27051Z" fill="#FF6900"></path> <path d="M27.5842 22.666C27.5292 23.0964 27.0342 23.0964 26.8142 22.7198C26.0993 21.5364 25.1648 21.3212 23.6803 21.2136C22.5808 21.1598 21.2609 21.2674 20.0514 21.2674C19.8314 21.2674 19.7765 21.106 19.7765 21.0522C19.9964 20.0302 20.876 18.147 21.8109 17.986C22.2508 17.9322 23.2404 17.8245 23.7903 17.8245C26.3193 17.8242 27.6942 20.6755 27.5842 22.666ZM13.2882 32.403C14.8827 32.8334 17.1371 33.1024 19.0065 32.941C22.2505 32.7258 24.7248 31.5424 26.0997 30.6815C25.2748 32.7258 22.1408 34.0168 19.1715 34.3396C19.1715 34.501 19.1165 34.6086 19.1165 34.77C21.3709 34.6624 23.5153 33.9092 24.5049 33.2638C23.9549 35.2543 21.2059 36.0614 18.6766 36.2228C18.6216 36.3842 18.5116 36.5456 18.4566 36.6532C19.9411 36.6532 21.3159 36.438 22.1405 36.169C20.986 38.267 16.0372 39.7194 11.8584 37.7828C12.7933 35.9534 13.2332 34.1244 13.2882 32.403ZM27.0892 18.0932C26.0993 17.1785 24.7798 16.7484 23.6253 16.8022C21.9759 16.8022 20.601 17.2327 18.5666 17.2865C17.1921 17.3403 15.9272 14.3813 14.2778 14.0051C13.5628 12.4451 11.9134 12.2298 10.9238 13.0366C9.98893 12.4985 8.55945 12.7675 8.50445 13.7898C7.45993 13.467 6.08507 14.0051 6.69001 15.4037C4.10565 15.4575 3.66569 17.7169 5.37052 17.9322C3.11612 19.1693 4.16101 21.3212 6.03045 20.8911C6.36041 24.1187 7.84489 28.3148 5.42551 29.3371C5.15054 29.4447 4.05102 29.7138 1.96161 29.2295C1.35667 29.0681 0.697104 28.9067 0.0921658 28.7453V30.4129C1.90661 30.8433 3.72106 31.1662 4.87594 31.0585C8.06487 30.7357 8.22985 28.1534 8.06487 25.8943C7.89989 23.6886 7.12997 21.1063 7.40494 19.2773L7.29495 19.1697C6.14044 20.353 5.37052 20.0306 5.26053 19.6539C5.09554 18.9007 6.47003 17.9325 7.23995 17.6097C7.23995 17.5559 7.29495 17.5021 7.29495 17.4483C6.58002 17.5559 5.70048 17.4483 5.64549 16.964C5.59049 16.3722 6.85499 15.7807 8.50482 15.9421C8.55982 15.9421 8.55982 15.8883 8.61481 15.8883C8.50482 15.8345 8.39484 15.7807 8.28485 15.7268C7.84489 15.5116 7.7349 15.135 7.89989 14.9198C8.06487 14.6507 8.50482 14.5431 8.88978 14.5431C9.49472 14.5431 9.9893 14.7045 10.3743 14.866C10.4293 14.866 10.4293 14.8122 10.4843 14.8122C10.3743 14.7045 10.2093 14.5969 10.1543 14.4893C10.0443 14.3279 10.0443 14.0589 10.2093 13.9513C10.4293 13.7898 11.0342 13.736 11.5288 14.1665C11.6388 14.2741 11.7488 14.3817 11.8037 14.4355C11.8587 14.4355 11.9137 14.4355 11.9687 14.3817C11.8587 14.2741 11.8037 14.1127 11.8037 14.0051C11.7488 13.8437 11.8037 13.6284 12.0237 13.5746C12.2437 13.5208 12.5187 13.6284 12.6837 13.8437C12.8486 14.0589 12.9586 14.3817 13.0136 14.5431C11.8591 14.6507 10.4843 15.0812 9.65971 16.2107C8.83479 17.2865 8.50519 19.0083 8.99977 20.6221C9.32974 22.2897 9.98967 23.8497 10.5942 25.4638C10.5942 25.4638 10.5942 25.4638 10.5942 25.5177C11.9137 29.2295 14.4431 38.375 2.18158 43.2164C2.78652 43.4855 3.50108 43.7007 4.216 43.7007H5.48051C8.00988 42.4097 9.71433 40.8494 10.9238 39.2894C16.5322 41.7102 21.6459 40.4727 23.8453 36.4918C25.3298 35.6309 26.2647 33.8557 26.3197 32.6185C27.2546 31.489 27.4192 30.09 27.1446 29.1219C27.0896 28.9067 26.8696 28.9067 26.5396 29.0681C21.9759 31.758 17.962 32.1881 13.1782 30.7895C13.0682 28.9605 12.6833 27.4005 12.5183 26.432C12.4083 24.5492 13.0133 23.6345 16.5322 24.7644C18.8415 25.3562 19.8861 26.3782 20.711 26.9162C21.0959 27.1853 21.5909 27.5081 21.8655 27.2929C22.0305 27.1853 22.0855 26.8624 22.0855 26.4858C22.0305 25.4638 21.5355 23.7421 21.0956 23.0968C22.4701 23.043 23.6249 23.043 24.2295 23.0968C25.549 23.312 25.659 24.0115 25.824 24.2801C26.2089 25.3559 28.3534 25.0872 28.5183 24.1725C28.8487 22.2893 28.9587 19.8146 27.0892 18.0932ZM2.67616 34.232C1.79625 34.1782 0.916712 34.1782 0.0917969 34.232V35.3615C1.57627 35.0387 2.51118 34.8773 2.51118 34.8773L2.67616 34.232Z" fill="black"></path> <path d="M16.4218 22.4507C14.4974 22.0203 12.3529 21.4822 11.2531 19.8684C11.2531 19.8146 11.1981 19.8146 11.1431 19.8146C11.0881 19.8146 11.0884 19.8684 11.0884 19.8684C11.0884 19.976 11.0884 20.0298 11.1434 20.1375L10.9785 20.1913C10.7035 19.7608 10.5935 19.2766 10.9235 18.9003C11.3634 18.3622 12.188 18.416 12.7379 18.7389L12.6829 18.9003C12.4079 18.8465 12.133 18.8465 11.913 18.9541C11.748 19.0617 11.693 19.2231 11.803 19.3845C12.7379 21.106 15.4869 21.4826 18.7312 21.2136C19.0611 21.2136 19.1161 21.0522 19.1711 20.8907C19.4461 19.815 19.9411 18.7927 20.7106 18.0394C20.1057 18.147 19.5561 18.147 19.1161 18.147C17.4667 18.2546 16.4768 18.0394 16.2018 17.8242L16.2568 17.6628C16.4218 17.7166 16.6418 17.7166 16.6418 17.6628C16.6968 17.609 16.6418 17.5551 16.5868 17.5013C16.2568 17.2323 14.8273 15.7799 14.8273 15.7799C14.6623 14.5428 12.8479 14.5428 12.133 15.7261L11.913 15.6723C11.968 15.4033 12.078 15.1881 12.188 15.0266C10.7035 15.3495 9.82357 16.6943 9.65859 17.9318C8.99903 23.4189 17.5217 22.1279 19.9411 24.3336C19.996 24.3874 20.106 24.5488 20.161 24.4412C20.2707 24.3336 19.1711 23.0422 16.4218 22.4507ZM13.4528 15.8875C13.8378 15.7799 14.4427 16.1566 14.7173 16.7484C15.0473 17.3403 14.9373 17.9318 14.5523 18.0932C14.1674 18.2546 13.5624 17.8242 13.2878 17.2323C13.2329 17.1247 13.2329 17.0709 13.1779 16.9633H13.2329C13.3428 17.0709 13.5078 17.1247 13.6178 17.0709C13.7828 16.9633 13.7278 16.7481 13.6178 16.5328C13.5078 16.3714 13.3428 16.21 13.1779 16.21L13.1229 16.1562C13.2329 15.9952 13.3428 15.9413 13.4528 15.8875Z" fill="white"></path> <path d="M26.0995 30.6814C24.725 31.5423 22.2506 32.7256 19.0063 32.9409C17.1369 33.0485 14.9375 32.8333 13.288 32.4028C13.288 32.9409 13.233 33.4786 13.123 34.0166C14.058 34.2318 15.6524 34.5547 18.0168 34.6085C17.9068 35.2003 17.2469 37.3522 15.6524 38.697C18.6217 38.8046 21.3157 37.675 22.1406 36.1685C21.3157 36.4375 19.8862 36.7065 18.4568 36.6527C18.5118 36.4913 18.6217 36.3837 18.6767 36.2223C21.2061 36.1147 23.9551 35.3076 24.505 33.2633C23.5151 33.909 21.3711 34.6619 19.1167 34.7695C19.1167 34.6081 19.1717 34.5005 19.1717 34.3391C22.1403 33.9628 25.2746 32.7256 26.0995 30.6814Z" fill="white"></path> <path d="M196.374 29.5687L191.746 19.6919C191.217 18.6137 190.511 18.1392 189.453 18.1392H189.277C188.175 18.1392 187.469 18.6137 186.94 19.6919L182.312 29.5687C181.871 30.5607 182.18 31.4234 183.105 31.7682C183.943 32.0701 184.736 31.8975 185.221 30.9489L186.279 28.7923C187.205 29.0942 188.395 29.2668 189.453 29.2668C190.599 29.2668 191.657 29.0942 192.495 28.7923L193.508 30.9489C193.949 31.8979 194.831 32.0701 195.624 31.7682C196.462 31.4234 196.815 30.5177 196.374 29.5687ZM189.365 26.2909C188.66 26.2909 187.91 26.2046 187.337 26.032L189.321 21.7189L191.305 26.032C190.732 26.2046 190.07 26.2909 189.365 26.2909Z" fill="black"></path> <path d="M179.711 28.6631H178.829V19.6061C178.829 18.5712 178.036 17.967 177.11 17.967C176.184 17.967 175.435 18.5708 175.435 19.6061V28.6635H169.528V19.6061C169.528 18.5712 168.779 17.967 167.809 17.967C166.839 17.967 166.089 18.5708 166.089 19.6061V30.2593C166.089 31.1649 166.706 31.8983 167.765 31.8983H178.036V33.3648C178.036 34.3998 178.785 35.0039 179.711 35.0039C180.681 35.0039 181.387 34.4001 181.387 33.3648V30.3026C181.386 29.224 180.725 28.6631 179.711 28.6631Z" fill="black"></path> <path d="M162.607 28.6631H161.725V19.6061C161.725 18.5712 160.932 17.967 160.006 17.967C159.081 17.967 158.331 18.5708 158.331 19.6061V28.6635H152.424V19.6061C152.424 18.5712 151.675 17.967 150.705 17.967C149.735 17.967 148.986 18.5708 148.986 19.6061V30.2593C148.986 31.1649 149.603 31.8983 150.661 31.8983H160.932V33.3648C160.932 34.3998 161.682 35.0039 162.608 35.0039C163.578 35.0039 164.283 34.4001 164.283 33.3648V30.3026C164.282 29.224 163.621 28.6631 162.607 28.6631Z" fill="black"></path> <path d="M143.607 18.0964H143.475C142.461 18.0964 141.8 18.5709 141.094 19.5629L135.54 27.2831V19.7355C135.54 18.7006 134.835 18.0964 133.909 18.0964C132.939 18.0964 132.234 18.7002 132.234 19.7355V30.0005C132.234 31.1217 132.983 31.8551 134.129 31.8551H134.306C135.364 31.8551 136.069 31.3377 136.73 30.3887L142.285 22.6685V30.216C142.285 31.251 142.99 31.8551 143.916 31.8551C144.841 31.8551 145.547 31.2514 145.547 30.216V19.9511C145.547 18.8299 144.842 18.0964 143.607 18.0964Z" fill="black"></path> <path d="M127.032 18.0964H117.51C116.408 18.0964 115.835 18.8295 115.835 19.7355V30.3887C115.835 31.4236 116.629 32.0277 117.554 32.0277C118.48 32.0277 119.229 31.424 119.229 30.3887V21.3313H125.313V30.3887C125.313 31.4236 126.062 32.0277 127.032 32.0277C127.958 32.0277 128.751 31.424 128.751 30.3457V19.6925C128.751 18.8299 128.134 18.0964 127.032 18.0964Z" fill="black"></path> <path d="M102.39 18.0103C98.29 18.0103 95.1602 21.0295 95.1602 25.0404C95.1602 29.0946 98.29 32.0705 102.39 32.0705C106.445 32.0705 109.62 29.0083 109.62 24.997C109.575 20.9428 106.445 18.0103 102.39 18.0103ZM102.39 28.8786C100.142 28.8786 98.5547 27.2395 98.5547 24.997C98.5547 22.7975 100.186 21.1584 102.39 21.1584C104.638 21.1584 106.225 22.7975 106.225 24.997C106.225 27.2399 104.682 28.8786 102.39 28.8786Z" fill="black"></path> <path d="M92.78 28.663H91.8983V19.7353C91.8983 18.8296 91.2812 18.0962 90.223 18.0962H82.4204C81.4948 18.0962 80.8776 18.7 80.8776 19.7353V21.8918C80.8776 23.4446 80.8337 24.6522 80.5691 25.946C80.3044 27.1969 79.952 28.0163 79.467 28.663H79.0702C77.9681 28.663 77.4392 29.3531 77.4392 30.3021V33.3643C77.4392 34.3993 78.1885 35.0034 79.1145 35.0034C80.0845 35.0034 80.7898 34.3996 80.7898 33.3643V31.8979H91.0612V33.3643C91.0612 34.3993 91.8104 35.0034 92.7365 35.0034C93.7064 35.0034 94.4118 34.3996 94.4118 33.3643V30.3021C94.4549 29.3531 93.926 28.663 92.78 28.663ZM88.5038 28.663H82.9493C83.3022 27.93 83.5665 27.2829 83.7868 26.3342C84.0071 25.2989 84.0954 24.264 84.1396 22.9268L84.1836 21.331H88.5038V28.663Z" fill="black"></path> <path d="M69.9009 18.0103C65.801 18.0103 62.6711 21.0295 62.6711 25.0404C62.6711 29.0946 65.801 32.0705 69.9009 32.0705C73.9564 32.0705 77.1306 29.0083 77.1306 24.997C77.1306 20.9428 74.0007 18.0103 69.9009 18.0103ZM69.9009 28.8786C67.6527 28.8786 66.0657 27.2395 66.0657 24.997C66.0657 22.7975 67.6967 21.1584 69.9009 21.1584C72.149 21.1584 73.7361 22.7975 73.7361 24.997C73.7361 27.2399 72.2372 28.8786 69.9009 28.8786Z" fill="black"></path> <path d="M60.2027 28.663H59.3209V19.7353C59.3209 18.8296 58.7038 18.0962 57.6456 18.0962H49.8431C48.9174 18.0962 48.3003 18.7 48.3003 19.7353V21.8918C48.3003 23.4446 48.3003 24.6522 47.9917 25.946C47.7271 27.1969 47.3746 28.0163 46.8896 28.663H46.5368C45.4347 28.663 44.9058 29.3531 44.9058 30.3021V33.3643C44.9058 34.3993 45.655 35.0034 46.5811 35.0034C47.551 35.0034 48.2564 34.3996 48.2564 33.3643V31.8979H58.5277V33.3643C58.5277 34.3993 59.277 35.0034 60.203 35.0034C61.173 35.0034 61.8783 34.3996 61.8783 33.3643V30.3021C61.878 29.3531 61.3487 28.663 60.2027 28.663ZM55.9268 28.663H50.3723C50.7252 27.93 50.9895 27.2829 51.2098 26.3342C51.4302 25.2989 51.5184 24.264 51.5627 22.9268L51.6066 21.331H55.9268V28.663Z" fill="black"></path> </svg> 