<?xml version="1.0" encoding="UTF-8"?> <svg xmlns="http://www.w3.org/2000/svg" width="130" height="42" viewBox="0 0 130 42" fill="none"> <path d="M94.089 2.96045H91.0642V23.5545H94.089V2.96045Z" fill="#333333"></path> <path d="M99.2376 19.8538C98.1114 19.8538 97.1782 20.7547 97.1782 21.9132C97.1782 23.0394 98.0792 23.9726 99.2376 23.9726C100.364 23.9726 101.297 23.0716 101.297 21.9132C101.265 20.7547 100.364 19.8538 99.2376 19.8538Z" fill="#333333"></path> <path d="M107.186 16.4107C107.186 13.9652 108.666 11.8414 111.498 11.8414H113.3V8.97754H111.498C109.245 8.97754 108.248 9.68546 107.186 10.8761L107.153 10.9082V8.97754H104.161V23.5543H107.153C107.186 23.5543 107.186 17.376 107.186 16.4107Z" fill="#333333"></path> <path d="M87.7823 8.97778H84.7576V23.5545H87.7823V8.97778Z" fill="#333333"></path> <path d="M86.2699 6.56412C87.3961 6.56412 88.3293 5.63096 88.3293 4.50472C88.3293 3.37848 87.3961 2.44531 86.2699 2.44531C85.1436 2.44531 84.2104 3.37848 84.2104 4.50472C84.2104 5.63096 85.1436 6.56412 86.2699 6.56412Z" fill="#333333"></path> <path d="M73.8811 20.8836C71.2747 20.8836 69.2796 18.8886 69.2796 16.25C69.2796 13.6113 71.2747 11.6485 73.8811 11.6485C76.4876 11.6485 78.547 13.5148 78.547 16.25C78.547 18.9851 76.4876 20.8836 73.8811 20.8836ZM78.4826 10.4257C77.3242 9.23512 75.5222 8.59155 73.7524 8.59155C69.5049 8.59155 66.094 12.0346 66.094 16.25C66.094 20.4975 69.5371 23.9084 73.7524 23.9084C75.5222 23.9084 77.3885 23.1361 78.4826 21.9455V23.5544H81.4752V8.97769H78.4826V10.4257Z" fill="#333333"></path> <path d="M121.698 23.9404C123.049 23.9404 124.787 23.2003 125.849 21.9775C125.849 22.5246 125.849 23.0394 125.849 23.5864H128.842V17.2152V8.97754H125.849V16.9899C125.849 19.0493 124.272 21.0122 121.891 21.0122C119.832 21.0122 118.351 19.4998 118.351 17.3439V8.97754H115.359V17.5691C115.359 21.4305 117.45 23.9404 121.698 23.9404Z" fill="#333333"></path> <path d="M57.3736 8.59155C55.3786 8.59155 53.4479 9.49254 52.2573 10.9084C51.1632 9.49254 49.5865 8.59155 47.4949 8.59155C45.7895 8.59155 44.5345 9.36383 43.8588 9.97522V8.94551H40.8662V23.5222H43.8588V15.0272C43.8588 13.1287 45.4033 11.5841 47.3019 11.5841C49.2004 11.5841 50.7449 13.1287 50.7449 15.0272V23.5544H53.7375V15.0272C53.7375 13.1287 55.282 11.5841 57.1806 11.5841C59.0791 11.5841 60.6236 13.1287 60.6236 15.0272V23.5544H63.6162V15.0272C63.6162 11.1015 61.0741 8.59155 57.3736 8.59155Z" fill="#333333"></path> <path d="M96.6956 30.3118V29.1855H95.8268H94.958H94.7971V37.7449H94.958H96.6956C96.6956 37.7449 96.6956 34.3019 96.6956 33.7227C96.6956 32.2747 97.5644 31.0519 99.2377 31.0519H100.3V29.1855H99.2377C97.8862 29.1855 97.307 29.6039 96.6956 30.3118Z" fill="#333333"></path> <path d="M117.161 33.8836C117.161 35.2672 116.067 36.0717 114.973 36.0717C113.847 36.0717 113.042 35.2351 113.042 34.0766V29.1855H111.144V34.2053C111.144 36.5865 112.495 37.938 114.876 37.938C115.648 37.938 116.549 37.5519 117.161 36.9405C117.161 37.1014 117.161 37.2301 117.161 37.391V37.7128H119.059V29.1855H117.161V33.8836V33.8836Z" fill="#333333"></path> <path d="M105.223 36.0716C103.807 36.0716 102.648 34.9132 102.648 33.4973C102.648 32.0815 103.807 30.9231 105.223 30.9231C106.639 30.9231 107.797 32.0815 107.797 33.4973C107.797 34.9132 106.639 36.0716 105.223 36.0716ZM105.223 28.9602C102.745 28.9602 100.718 30.9874 100.718 33.4652C100.718 35.9429 102.745 37.9701 105.223 37.9701C107.7 37.9701 109.728 35.9429 109.728 33.4652C109.728 30.9874 107.7 28.9602 105.223 28.9602Z" fill="#333333"></path> <path d="M125.431 36.0072C123.95 36.0072 122.856 34.9453 122.856 33.4652C122.856 31.985 123.95 30.9231 125.431 30.9231C126.879 30.9231 127.973 32.0171 127.973 33.4652C127.973 34.9132 126.879 36.0072 125.431 36.0072ZM125.495 28.9602C124.53 28.9602 123.564 29.3142 122.889 29.8934V29.1855H120.99V40.7052H122.889V37.0048C123.532 37.6161 124.53 38.0023 125.495 38.0023C127.973 38.0023 130 35.9751 130 33.4973C130 30.9874 127.973 28.9602 125.495 28.9602Z" fill="#333333"></path> <path d="M88.4257 36.0072C86.9777 36.0072 85.8837 34.9132 85.8837 33.4652C85.8837 32.0171 86.9777 30.9231 88.4257 30.9231C89.9059 30.9231 91 31.985 91 33.4652C90.9678 34.9454 89.9059 36.0072 88.4257 36.0072ZM90.9678 29.8934C90.2921 29.3142 89.3267 28.9602 88.3614 28.9602C85.8837 28.9602 83.8564 30.9874 83.8564 33.4652C83.8564 35.9429 85.8837 37.9701 88.3614 37.9701C89.3267 37.9701 90.3243 37.584 90.9678 36.9726V37.1335C90.9356 38.9033 90.099 39.7721 88.4257 39.7721H88.3936C87.4604 39.7721 86.6238 39.4181 85.8515 38.6458L85.7871 38.5815L84.4035 39.9008L84.4678 39.9652C85.1757 40.8018 86.6238 41.735 88.3614 41.735C88.3936 41.735 88.4257 41.735 88.4579 41.735C90.0668 41.7028 92.802 41.0592 92.8985 37.1656V29.1211H91V29.8934H90.9678Z" fill="#333333"></path> <path d="M15.9926 20.8193C13.354 20.8193 11.1658 18.6634 11.1658 15.9926C11.1658 13.354 13.3218 11.1658 15.9926 11.1658C18.6312 11.1658 20.8193 13.3218 20.8193 15.9926C20.8193 18.6634 18.6634 20.8193 15.9926 20.8193ZM15.9926 0C7.17574 0 0 7.17574 0 15.9926C0 24.8094 7.17574 31.9851 15.9926 31.9851C19.2104 31.9851 22.3317 31.0198 25.0025 29.2178L25.0346 29.1856L22.8787 26.6757L22.8465 26.7079C20.7871 28.0272 18.4059 28.7351 15.9926 28.7351C8.97772 28.7351 3.28218 23.0396 3.28218 16.0247C3.28218 9.0099 8.97772 3.31436 15.9926 3.31436C23.0074 3.31436 28.703 9.0099 28.703 16.0247C28.703 16.9257 28.6064 17.8589 28.4134 18.7599C27.995 20.401 26.8688 20.9158 26 20.8515C25.1312 20.7871 24.1015 20.1436 24.1015 18.6312V15.9926C24.1015 11.5198 20.4653 7.91583 16.0247 7.91583C11.552 7.91583 7.94802 11.552 7.94802 15.9926C7.94802 20.4653 11.5842 24.0693 16.0247 24.0693C18.1807 24.0693 20.2401 23.2327 21.7525 21.6881C22.6535 23.0718 24.1015 23.9406 25.7426 24.0693C25.8713 24.0693 26.0322 24.1015 26.1609 24.1015C27.3193 24.1015 28.4777 23.7153 29.4109 23.0074C30.3762 22.2673 31.0841 21.2376 31.4703 19.9505C31.5346 19.7574 31.6634 19.2747 31.6634 19.2747V19.2426C31.8886 18.2129 31.9851 17.2153 31.9851 15.9604C32.0173 7.17574 24.8416 0 15.9926 0Z" fill="#FC2B38"></path> </svg> 