<?xml version="1.0" encoding="UTF-8"?> <svg xmlns="http://www.w3.org/2000/svg" width="129" height="47" viewBox="0 0 129 47" fill="none"> <path d="M85.7309 10.3831V31.6003C85.7309 31.9194 85.4648 32.1755 85.1332 32.1755H80.6305C80.2989 32.1755 80.0327 31.9194 80.0327 31.6003V10.3831C80.0327 10.064 80.2989 9.80783 80.6305 9.80783H85.1332C85.4648 9.80783 85.7309 10.064 85.7309 10.3831ZM120.824 9.80783H115.784C115.522 9.80783 115.287 9.97159 115.213 10.2109L111.225 22.7489L106.844 10.1983C106.761 9.9632 106.534 9.80783 106.277 9.80783H102.76C102.503 9.80783 102.272 9.96739 102.193 10.1983L97.8124 22.7489L93.8245 10.2109C93.746 9.97159 93.5147 9.80783 93.253 9.80783H88.2135C88.0216 9.80783 87.8383 9.89601 87.7292 10.0472C87.6158 10.1941 87.5853 10.3873 87.6463 10.5636L95.0462 31.7892C95.1291 32.0244 95.356 32.1797 95.6134 32.1797H99.6144C99.8718 32.1797 100.103 32.0202 100.182 31.7892L104.523 19.3898L108.864 31.7892C108.947 32.0244 109.174 32.1797 109.431 32.1797H113.432C113.69 32.1797 113.921 32.0202 114 31.7892L121.399 10.5636C121.461 10.3915 121.43 10.1983 121.317 10.0472C121.199 9.89601 121.015 9.80783 120.824 9.80783ZM128.402 9.80783H123.9C123.568 9.80783 123.302 10.064 123.302 10.3831V31.6003C123.302 31.9194 123.568 32.1755 123.9 32.1755H128.402C128.734 32.1755 129 31.9194 129 31.6003V10.3831C129 10.064 128.734 9.80783 128.402 9.80783ZM77.4236 31.4491C77.6853 31.7305 77.4715 32.1797 77.0745 32.1797H71.5552C71.3326 32.1797 71.1188 32.0832 70.9749 31.9194L70.0412 30.8361C68.1345 32.0244 65.8657 32.7172 63.431 32.7172C56.7118 32.7172 51.2492 27.4559 51.2492 20.9938C51.2492 14.5316 56.7162 9.27037 63.431 9.27037C70.1502 9.27037 75.6129 14.5316 75.6129 20.9938C75.6129 23.3242 74.9017 25.495 73.6756 27.3216L77.4236 31.4491ZM66.4852 26.7211L64.068 23.9246C63.815 23.6307 64.0331 23.1856 64.4258 23.1856H69.4827C69.7227 22.497 69.8579 21.758 69.8579 20.9938C69.8579 17.4877 67.1484 14.4686 63.4267 14.4686C59.7049 14.4686 56.9954 17.4919 56.9954 20.9938C56.9954 24.4957 59.7049 27.4769 63.4267 27.4769C64.5611 27.4769 65.5908 27.1998 66.4852 26.7211ZM37.4225 31.34C37.5577 32.2259 37.2698 32.5912 36.9774 32.5912C36.6589 32.5912 36.2619 32.2343 35.7907 31.5247C35.3238 30.8277 35.1537 30.0257 35.3849 29.6226C35.5376 29.3539 35.8561 29.2363 36.2575 29.3833C37.0385 29.6688 37.3439 30.8151 37.4225 31.34ZM33.1204 33.2673C34.0542 34.0273 34.3378 34.93 33.8447 35.5641C33.5698 35.9126 33.1248 36.1058 32.5925 36.1058C32.0689 36.1058 31.5366 35.921 31.1658 35.6103C30.3193 34.8965 30.0706 33.7417 30.6204 33.0825C30.8385 32.8264 31.1876 32.6836 31.6108 32.6836C32.1213 32.6878 32.658 32.8936 33.1204 33.2673ZM31.5584 40.5944C35.5769 40.5944 39.9356 41.9213 44.7612 46.0362C45.2455 46.4477 45.8869 45.9355 45.4681 45.4232C40.7254 39.6622 36.3404 38.5663 31.9642 37.6384C26.615 36.5046 23.8619 33.6074 21.9421 30.4246C21.5625 29.7906 21.388 29.9039 21.3531 30.7185C21.3095 31.7137 21.3836 33.0321 21.6149 34.3254C21.4011 34.3338 21.1829 34.3338 20.9648 34.3338C13.3119 34.3338 7.10316 28.3629 7.10316 20.9938C7.10316 13.6289 13.3075 7.65378 20.9648 7.65378C28.6177 7.65378 34.8264 13.6247 34.8264 20.9938C34.8264 21.5187 34.8002 22.0351 34.7392 22.5432C33.7269 22.3668 31.733 22.3458 30.3368 22.4634C29.8132 22.5054 29.883 22.7447 30.2844 22.8119C34.8657 23.6097 38.0159 26.3432 38.7314 31.298C38.7489 31.4113 38.9016 31.4449 38.9627 31.3484C40.8475 28.3209 41.9296 24.777 41.9296 20.9896C41.9339 9.84562 32.5445 0.813721 20.9648 0.813721C9.38507 0.813721 0 9.84562 0 20.9896C0 32.1336 9.38507 41.1697 20.9648 41.1697C24.0408 41.1697 27.0862 40.5944 31.5584 40.5944Z" fill="#FF8C00"></path> </svg> 