<svg id="d53f1cbb-6216-4afb-9db1-a4e37a1441f4" data-name="Слой 1" xmlns="http://www.w3.org/2000/svg" xmlns:xlink="http://www.w3.org/1999/xlink" viewBox="0 0 259.63 98.45">
  <defs>
    <linearGradient id="8bd68546-acf2-4db0-b7cb-658d6425d6e8" x1="85.97" y1="51.09" x2="39.88" y2="90.71" gradientUnits="userSpaceOnUse">
      <stop offset="0.3" stop-color="#c6c6c8"/>
      <stop offset="0.38" stop-color="#c0c0c2"/>
      <stop offset="0.51" stop-color="#aeaeb0"/>
      <stop offset="0.65" stop-color="#909194"/>
      <stop offset="0.81" stop-color="#68696c"/>
      <stop offset="0.87" stop-color="#55565a"/>
    </linearGradient>
    <linearGradient id="c34e457a-6703-4691-8c06-3779cd1ea152" x1="46.2" y1="18.36" x2="83.42" y2="59.59" gradientUnits="userSpaceOnUse">
      <stop offset="0.04" stop-color="#ffec85"/>
      <stop offset="0.05" stop-color="#ffec83"/>
      <stop offset="0.13" stop-color="#fde860"/>
      <stop offset="0.21" stop-color="#fbe443"/>
      <stop offset="0.3" stop-color="#f9e12a"/>
      <stop offset="0.41" stop-color="#f8df17"/>
      <stop offset="0.53" stop-color="#f7dd0a"/>
      <stop offset="0.69" stop-color="#f6dc02"/>
      <stop offset="1" stop-color="#f6dc00"/>
    </linearGradient>
    <linearGradient id="d6f842c1-13fc-44c7-afc9-1744f73efe86" x1="55.92" y1="81.82" x2="14.01" y2="45.19" gradientUnits="userSpaceOnUse">
      <stop offset="0.3" stop-color="#939496"/>
      <stop offset="0.46" stop-color="#797a7d"/>
      <stop offset="0.64" stop-color="#65666a"/>
      <stop offset="0.82" stop-color="#595a5e"/>
      <stop offset="1" stop-color="#55565a"/>
    </linearGradient>
    <linearGradient id="2c6ed75f-a5aa-42cd-86a1-e918d8ce9f3a" x1="11.49" y1="59.59" x2="43.11" y2="28.3" gradientUnits="userSpaceOnUse">
      <stop offset="0.35" stop-color="#bfbb74"/>
      <stop offset="0.95" stop-color="#92911a"/>
    </linearGradient>
  </defs>
  <title>suek-logo-ru</title>
  <g>
    <g>
      <path d="M114.15,33c-3.6,3.84-5.5,9.47-5.5,16.27,0,13.38,7.26,21.69,18.94,21.69,9.62,0,16.2-5.59,18-15.33l.16-.86H136l-.12.58c-.91,4.53-3.88,7.13-8.16,7.13-6.89,0-9.35-6.77-9.35-13.1,0-9.9,4.83-13.43,9.35-13.43,6.39,0,7.55,4.27,8.18,6.57l.14.53h9.64l-.06-.77c-.54-7.13-6.38-14.81-18-14.81A18,18,0,0,0,114.15,33Z" fill="#55565a"/>
      <path d="M172.58,28.52l-7.89,21.25c-1.28-2.64-10.26-21.25-10.26-21.25H143.37L160,60.17c-1.18,2.11-1.68,2.43-3.48,2.43a9,9,0,0,1-2.95-.59l-1-.47v8.78l.54.13a29.31,29.31,0,0,0,5.29.52c4.26,0,7.28-1.25,10.07-7.64L183.6,28.52Z" fill="#55565a"/>
      <path d="M182.12,42.29l-.06.77h9.64l.15-.53c.63-2.3,1.79-6.57,8.22-6.57,1.58,0,6.7.61,8.51,8h-11v8.32H209c-.48,3.59-2.28,10.18-9,10.18-4.27,0-7.24-2.6-8.15-7.13l-.12-.58H182l.16.86C184,65.38,190.56,71,200.18,71c11.75,0,19.06-8.31,19.06-21.69s-7.53-21.8-19.17-21.8S182.66,35.16,182.12,42.29Z" fill="#55565a"/>
      <path d="M246.18,28.52,232,43.67V28.52h-9.75V69.93H232V56l3.1-3.19,12,17.16h12.53l-17.7-24.27L259,28.52Z" fill="#55565a"/>
    </g>
    <g>
      <path d="M65.71,56.48c-.41.41-14.22,14-15.19,15a23,23,0,0,0,20.75,2.67c.82-.3,2.27-.67,3.12-1.08l.86-.92a32.49,32.49,0,0,0,8-15.67C77.41,54,69.76,53.14,65.71,56.48Z" fill="url(#8bd68546-acf2-4db0-b7cb-658d6425d6e8)"/>
      <path d="M65.71,39.09c3.86,3.87,12.83,4.2,17,.95-1-4.34-5-12-9.33-15.66l-1.2-1.1a34.35,34.35,0,0,0-10.14-6.17l-2.21-.78-3.51-.91a37.48,37.48,0,0,0-7.25-.67,34.39,34.39,0,0,0-7,.72l-3.67,1-2.09.75a34.17,34.17,0,0,0-8.45,5.15,24.57,24.57,0,0,1,21.77,3.72S65.28,38.66,65.71,39.09Z" fill="url(#c34e457a-6703-4691-8c06-3779cd1ea152)"/>
      <path d="M25.24,74a34.06,34.06,0,0,0,11.08,7.26l2.09.75,3.68,1a36.69,36.69,0,0,0,14,.09l3.76-.95,2.48-.89a35.83,35.83,0,0,0,8.78-5.15A26.87,26.87,0,0,1,48.59,72.4l0,0L26.83,50.66a22.91,22.91,0,0,0-4,13A23.8,23.8,0,0,0,24,71a27.42,27.42,0,0,0,1.15,2.85Z" fill="url(#d6f842c1-13fc-44c7-afc9-1744f73efe86)"/>
      <path d="M24.34,25.37a34.12,34.12,0,0,0-7.25,11.09l-.76,2.09-1,3.68a34.44,34.44,0,0,0,0,14l1,3.67L17.09,62a33.34,33.34,0,0,0,5.15,8.45,25.47,25.47,0,0,1-1.12-7.21,24.2,24.2,0,0,1,4.79-14.51l0,0L47.66,27A23.1,23.1,0,0,0,26.9,24.3c-.81.3-1.65.64-2.49,1.05Z" fill="url(#2c6ed75f-a5aa-42cd-86a1-e918d8ce9f3a)"/>
    </g>
    <path d="M77.65,24.44a37.62,37.62,0,0,1,0,49.57,34.72,34.72,0,0,1-3.84,3.83L72,79.34c-.42.31-.85.62-1.31.93a38.27,38.27,0,0,1-7.32,4,38,38,0,0,1-28.55-.11,39.69,39.69,0,0,1-7.13-4l-1.27-.92,0,0c-.65-.5-1.26-1-1.88-1.54a36.26,36.26,0,0,1-3.87-3.87,37.75,37.75,0,0,1,0-49.23,37.21,37.21,0,0,1,3.87-3.87c.62-.54,1.23-1,1.88-1.54,0,0,0,0,0,0,.42-.32.85-.62,1.27-.92a40.63,40.63,0,0,1,7.13-3.88,37.54,37.54,0,0,1,28.55-.12,36.57,36.57,0,0,1,7.32,3.95c.46.28.89.62,1.31.93.61.46,1.23.95,1.84,1.46ZM89.55,46.5v-.23c1.79-3.87,5.17-4,8.89-.42,0-5.91-1.26-10.59-4.11-13.24-4-3.57-8.22-1.24-11.66-6.09-.4-4.24,2.51-6,7.52-4.84-3-5.07-6.44-8.48-10.2-9.36a7.06,7.06,0,0,0-2.34-.16,16,16,0,0,0-3.84.85,18,18,0,0,1-1.84.5,7.83,7.83,0,0,1-1.31.15,7.7,7.7,0,0,1-3.82-.8C64.43,9.42,66,6.52,70.66,5a.76.76,0,0,0,.27-.11,1,1,0,0,0-.27-.11,27.11,27.11,0,0,0-7.32-3,12,12,0,0,0-6,0c-4.06,1.38-5,4.76-8.21,6.33a7.77,7.77,0,0,1-2.61.73h-.23c-3.87-1.81-4-5.18-.42-8.9-4.53,0-8.37.77-11.13,2.38A11,11,0,0,0,32.64,4.1c-3.22,3.69-1.57,7.52-5,10.78a10.05,10.05,0,0,1-1.08.89h-.23a7.59,7.59,0,0,1-1.88-.11c-2.72-.66-3.71-3.34-2.72-7.41l-1.15.69c-4.45,2.8-7.48,6-8.29,9.43-1.07,5.31,3.11,7.8.51,13.28-3.5,2.49-6.49.88-7.95-4.06C1.92,32.73.68,37.44,1.8,41.13c1.72,5,6.41,5.14,7.1,10.85v.24c-1.77,3.87-5.18,4-8.9.46,0,5.87,1.3,10.59,4.14,13.23,4,3.53,8.23,1.21,11.67,6.07.4,4.22-2.52,6-7.53,4.83,3,5.1,6.45,8.55,10.21,9.4a10.07,10.07,0,0,0,2.11.19,15.29,15.29,0,0,0,3.87-.84c.62-.2,1.23-.38,1.88-.54h0c.42-.07.85-.16,1.27-.19a8,8,0,0,1,4,.82c2.4,3.47.82,6.41-4,7.9a.16.16,0,0,1-.08,0s.08,0,.08.07a29,29,0,0,0,7.13,3,12.1,12.1,0,0,0,6.33,0c4-1.34,4.92-4.68,8.06-6.26a8.66,8.66,0,0,1,2.76-.8h.23c3.88,1.8,4,5.18.43,8.9,4.33,0,8-.69,10.74-2.18a10.53,10.53,0,0,0,2.53-1.93c3.18-3.64,1.61-7.39,4.79-10.62A9.54,9.54,0,0,1,72,82.64a.12.12,0,0,1-.08,0s0,0,.08-.07,0,0,.07,0a.46.46,0,0,1-.07.07,10,10,0,0,1,1.84.08c2.87.54,4,3.26,3,7.45a6.64,6.64,0,0,0,.89-.55c4.6-2.84,7.71-6.1,8.52-9.62,1.07-5.34-3.12-7.79-.54-13.28,0,0,0,.08,0,.11,3.49-2.45,6.48-.84,7.94,4.07,3-5.1,4.19-9.82,3.07-13.5C94.91,52.37,90.19,52.22,89.55,46.5Z" fill="#b5b5b7"/>
  </g>
</svg>
