<?xml version="1.0" encoding="UTF-8"?> <svg xmlns="http://www.w3.org/2000/svg" width="164" height="40" viewBox="0 0 164 40" fill="none"> <g clip-path="url(#clip0)"> <path d="M55.5315 19.909H51.0117V17.0996H63.3423V19.909H58.8226V27.6512H55.5315V19.909Z" fill="#222220"></path> <path d="M75.98 17.0996V27.6512H72.7987V21.5017L67.3135 27.6512H64.5051V17.1439H67.6865V23.2271L73.1716 17.0996H75.98Z" fill="#222220"></path> <path d="M81.4597 27.6509H78.2783V17.1436H81.4597V21.0147H86.5718V17.1436H89.7532V27.6509H86.5718V23.7134H81.4597V27.6509Z" fill="#222220"></path> <path d="M92.0515 27.6509V17.1436H95.2329V19.9087H98.524C99.3099 19.8677 100.097 19.965 100.85 20.1962C101.572 20.4423 102.196 20.9182 102.627 21.5525C103.059 22.1868 103.274 22.9451 103.241 23.7134C103.269 24.5467 103.011 25.3642 102.512 26.0288C102.013 26.6934 101.302 27.1646 100.499 27.3634C99.8476 27.5381 99.1756 27.62 98.502 27.6067L92.0515 27.6509ZM95.2329 25.1071H97.9754C98.3985 25.1454 98.8248 25.0927 99.2261 24.9522C99.4689 24.8514 99.676 24.6795 99.8208 24.4586C99.9655 24.2377 100.041 23.9781 100.038 23.7134C100.043 23.4562 99.9636 23.2045 99.813 22.9968C99.6625 22.7891 99.4486 22.6368 99.2041 22.5632C98.8048 22.4499 98.3895 22.4051 97.9754 22.4304H95.2329V25.1071Z" fill="#222220"></path> <path d="M107.86 27.6509H104.678V17.1436H107.86V21.1032H108.737L112.577 17.1436H116.57L111.48 22.1207L116.767 27.6509H112.533L108.737 23.6692H107.86V27.6509Z" fill="#222220"></path> <path d="M130.217 22.3862C130.217 25.5274 127.65 27.9607 123.394 27.9607C119.137 27.9607 116.548 25.5274 116.548 22.3862C116.548 19.2451 119.115 16.8118 123.416 16.8118C127.716 16.8118 130.217 19.2451 130.217 22.3862ZM126.882 22.3862C126.882 20.6608 125.5 19.3999 123.394 19.3999C121.288 19.3999 119.905 20.6608 119.905 22.3862C119.905 24.1116 121.266 25.3947 123.394 25.3947C125.522 25.3947 126.882 24.1116 126.882 22.3862Z" fill="#222220"></path> <path d="M147.106 22.3642C147.106 25.3726 144.714 26.9432 140.699 27.0317V28.0935H137.518V27.0317C133.525 26.9432 131.133 25.3726 131.133 22.3642C131.133 19.3558 133.525 17.6525 137.518 17.564V16.5022H140.699V17.564C144.72 17.6525 147.106 19.3558 147.106 22.3642ZM137.518 19.8424C135.324 19.9309 134.358 20.9485 134.358 22.3642C134.358 23.7799 135.324 24.6869 137.518 24.7754V19.8424ZM143.859 22.3642C143.859 20.9485 142.915 19.9309 140.699 19.8424V24.7754C142.921 24.6869 143.864 23.7799 143.864 22.3642H143.859Z" fill="#222220"></path> <path d="M164.005 22.3642C164.005 25.3726 161.614 26.9432 157.599 27.0317V28.0935H154.417V27.0317C150.424 26.9432 148.033 25.3726 148.033 22.3642C148.033 19.3558 150.424 17.6525 154.417 17.564V16.5022H157.599V17.564C161.614 17.6525 164.005 19.3558 164.005 22.3642ZM154.417 19.8424C152.223 19.9309 151.258 20.9485 151.258 22.3642C151.258 23.7799 152.223 24.6869 154.417 24.7754V19.8424ZM160.758 22.3642C160.758 20.9485 159.815 19.9309 157.599 19.8424V24.7754C159.815 24.6869 160.753 23.7799 160.753 22.3642H160.758Z" fill="#222220"></path> <path d="M43.8427 18.7087L44.4296 16.8505L42.5208 16.9114C41.6264 16.8756 40.7631 16.5714 40.0415 16.0376C40.1292 16.0376 40.2115 16.0376 40.2993 16.0376C40.8703 16.0355 41.4294 15.8729 41.9139 15.5681C42.3984 15.2633 42.789 14.8284 43.0418 14.3122L43.8811 12.5038C43.2228 12.5094 42.565 12.4706 41.9119 12.3877C41.2876 12.2396 40.7253 11.8971 40.3048 11.4088C40.0231 11.1061 39.6834 10.8642 39.3063 10.6978C38.9291 10.5315 38.5224 10.4441 38.1107 10.441C37.7848 10.4426 37.461 10.4948 37.1508 10.5959C37.1972 10.4473 37.2338 10.2958 37.2605 10.1424C37.3895 9.06264 37.0898 7.97525 36.4268 7.11738L34.9787 5.32006L34.0901 7.42154C33.9491 7.72228 33.7314 7.9799 33.4593 8.16812C33.3082 7.41841 32.942 6.72996 32.4062 6.1883C31.961 5.72873 31.4284 5.3645 30.8403 5.11743C30.2521 4.87036 29.6206 4.74554 28.9834 4.75045C28.7594 4.74935 28.5357 4.76599 28.3143 4.80022L26.581 5.14309C26.7309 4.55762 26.9676 3.9983 27.2831 3.48403L28.2375 1.98534L25.835 2.21208L25.0671 0.553021L23.5861 1.36596L22.2148 0L20.8435 1.36596L19.3625 0.591732L18.5946 2.21208L16.1921 1.93557L17.1465 3.43979C17.463 3.95351 17.6998 4.51299 17.8486 5.09885L16.2031 4.77257H16.1482C15.9195 4.73764 15.6884 4.721 15.4571 4.7228C14.8199 4.71757 14.1883 4.84225 13.6001 5.08934C13.0119 5.33642 12.4794 5.70083 12.0344 6.16065C11.4901 6.7086 11.1197 7.40737 10.9703 8.16812C10.7043 7.98551 10.4906 7.7357 10.3504 7.44366L9.45637 5.32559L7.99732 7.12844C7.34563 7.98727 7.05237 9.06875 7.18004 10.1424C7.20717 10.2957 7.24381 10.4472 7.28974 10.5959C6.97972 10.4942 6.65585 10.442 6.32984 10.441C5.91818 10.4441 5.51143 10.5315 5.13427 10.6978C4.75711 10.8642 4.41741 11.1061 4.13579 11.4088C3.71749 11.8916 3.16224 12.2333 2.5451 12.3877C1.88434 12.4863 1.21615 12.5252 0.548513 12.5038L1.3658 14.3398C1.61919 14.8556 2.0099 15.2902 2.49425 15.5949C2.97859 15.8996 3.53747 16.0625 4.10836 16.0653C4.19613 16.0653 4.2784 16.0653 4.36617 16.0653C3.65295 16.5906 2.80212 16.8925 1.9198 16.9335L0 16.8505L0.586909 18.7087C0.801563 19.4221 1.21596 20.0578 1.78032 20.5395C2.34468 21.0212 3.03498 21.3283 3.76829 21.424C3.69241 21.9066 3.50356 22.364 3.2174 22.7583C2.93123 23.1526 2.55598 23.4725 2.12275 23.6914L0.652731 24.2942L1.44259 25.6823C1.76262 26.1843 2.20371 26.5962 2.7246 26.8796C3.24549 27.163 3.82916 27.3085 4.42102 27.3026C4.73441 27.3019 5.0469 27.2686 5.35349 27.2031C5.43203 27.5413 5.52722 27.8754 5.63872 28.2041C5.91115 28.9318 5.93049 29.7312 5.69357 30.4714L4.9805 31.9812L6.57667 32.407C6.93531 32.4985 7.30377 32.5449 7.6737 32.5453C7.93586 32.5465 8.19727 32.5168 8.45259 32.4568C8.63972 32.4147 8.82315 32.3573 9.0011 32.2854C9.20674 32.656 9.45935 32.998 9.75257 33.3029C10.7728 34.3592 12.2209 34.8956 14.0584 34.8956H15.3693L12.6652 36.0293L14.7166 37.0524C15.5422 37.4642 16.388 37.8333 17.2507 38.1584L17.0039 38.8774L17.7115 39.2036C18.8861 39.6688 20.1308 39.9288 21.392 39.9723C21.392 39.9723 21.9405 39.9723 22.2367 39.9723C22.5329 39.9723 23.076 39.9723 23.076 39.9723C24.332 39.9255 25.571 39.6637 26.74 39.1981L27.4257 38.8774L27.1843 38.1584C28.057 37.8211 28.9119 37.439 29.7459 37.0137L31.7589 36.0293L29.0602 34.9233H30.3767C32.2142 34.9233 33.6677 34.3702 34.6825 33.3306C34.9761 33.026 35.2287 32.6839 35.434 32.313C35.6121 32.3844 35.7955 32.4417 35.9825 32.4844C36.2379 32.5441 36.4992 32.5738 36.7614 32.5729C37.1312 32.5719 37.4996 32.5255 37.8584 32.4347L39.4601 32.0088L38.7634 30.5268C38.5024 29.7732 38.5121 28.9511 38.7909 28.2041C38.9061 27.8667 38.9993 27.5238 39.0761 27.181C39.3845 27.2465 39.6988 27.2799 40.014 27.2805C40.6108 27.2854 41.1988 27.1353 41.7214 26.8447C42.244 26.5542 42.6836 26.1329 42.998 25.6215L43.7768 24.25L42.3288 23.6527C41.895 23.4345 41.5193 23.1148 41.233 22.7204C40.9468 22.326 40.7582 21.8682 40.6832 21.3853C41.4172 21.2892 42.108 20.9812 42.6724 20.4985C43.2368 20.0158 43.6509 19.3789 43.8646 18.6645L43.8427 18.7087Z" fill="white"></path> <path d="M22.2147 5.69604C20.6844 5.69604 19.5325 6.20482 19.2856 6.80209L22.2147 7.96896L25.1438 6.80209C24.8969 6.20482 23.7451 5.69604 22.2147 5.69604Z" fill="white"></path> <path d="M22.2477 36.5657H22.1873C21.2347 36.5575 20.2864 36.435 19.3625 36.2007L18.6494 38.2192C19.8195 38.5487 21.0274 38.7216 22.2422 38.7335C23.457 38.7217 24.6649 38.5488 25.8349 38.2192L25.067 36.2007C24.1431 36.4347 23.1948 36.5572 22.2422 36.5657" fill="white"></path> <path d="M27.8535 34.5583C27.0488 34.9629 26.2122 35.2995 25.3523 35.5648L25.9557 37.2239C26.9128 36.9687 27.8425 36.6186 28.7311 36.1787L27.486 35.7584L27.8535 34.5583Z" fill="white"></path> <path d="M16.5762 34.5583L16.9437 35.775L15.6931 36.1953C16.582 36.6348 17.5116 36.9849 18.4686 37.2405L19.072 35.5814C18.2121 35.316 17.3755 34.9793 16.5707 34.5749" fill="white"></path> <path d="M22.215 3.76617C23.3151 3.75421 24.4008 4.01838 25.3744 4.53487C25.4678 4.21453 25.5814 3.90051 25.7145 3.59474L25.3854 3.63345L25.0398 3.67216L24.8917 3.35694L24.4529 2.4168L23.6521 2.8371L23.3394 2.99747L23.0871 2.7652L22.215 1.88037L21.3428 2.7652L21.096 3.01406L20.7834 2.85369L19.977 2.43339L19.5437 3.37353L19.3956 3.68875L19.0501 3.65004L18.7209 3.61133C18.8534 3.91734 18.967 4.23132 19.061 4.55146C20.0317 4.03054 21.1154 3.7607 22.215 3.76617" fill="white"></path> <path d="M39.8494 14.6052C39.9957 14.6567 40.1496 14.6829 40.3046 14.6826C40.6132 14.6802 40.9156 14.5943 41.18 14.4338C41.4443 14.2732 41.6611 14.044 41.8075 13.7701C40.8446 13.6086 39.9667 13.1163 39.3228 12.3765C39.1694 12.2036 38.9818 12.0651 38.7721 11.9698C38.5623 11.8746 38.3351 11.8247 38.1051 11.8235C37.7448 11.8292 37.3933 11.9365 37.0903 12.1332C38.6481 12.9682 38.9662 14.3065 39.8329 14.6107" fill="white"></path> <path d="M4.13037 14.6828C4.28358 14.683 4.4357 14.6568 4.58015 14.6053C5.46874 14.3012 5.78688 12.9463 7.32272 12.1278C7.02133 11.9321 6.67187 11.8249 6.31345 11.8181C6.08342 11.8194 5.8562 11.8692 5.64645 11.9645C5.43671 12.0597 5.24911 12.1983 5.09575 12.3711C4.45689 13.1096 3.58523 13.6037 2.62744 13.7703C2.77343 14.0446 2.99008 14.2741 3.25457 14.4347C3.51907 14.5953 3.82162 14.681 4.13037 14.6828Z" fill="white"></path> <path d="M40.2718 20.0527H40.3486C41.9941 20.0527 42.5427 18.2941 42.5427 18.2941H42.5097C41.6501 18.2672 40.8066 18.0513 40.0382 17.6616C39.2698 17.2719 38.5952 16.7177 38.0613 16.0378C36.9314 14.5944 36.0099 13.3224 34.1833 12.8247L34.0078 12.7805L33.9694 12.598C33.92 12.3159 34.112 12.045 34.5179 11.7684C37.0356 10.1094 35.3242 7.98578 35.3242 7.98578C35.3242 7.98578 34.6276 9.67802 33.0205 9.67802H32.9108C32.7267 9.67458 32.5433 9.65609 32.3623 9.62272L32.0661 9.56742C32.1879 9.14345 32.192 8.69389 32.0779 8.26775C31.9637 7.8416 31.7358 7.45522 31.4188 7.15072C31.1026 6.82293 30.7238 6.56324 30.3052 6.38739C29.8865 6.21153 29.4369 6.12316 28.9834 6.12763C28.8217 6.12571 28.6601 6.13867 28.5007 6.16634C29.0492 6.90186 29.4606 8.1185 28.8189 8.86508C28.2703 9.51212 26.9045 9.53977 26.9045 10.5241C26.9045 10.9334 27.283 11.409 27.9577 11.8348C29.9982 13.1289 32.0222 14.8488 32.8614 17.1493C33.9145 20.0195 32.7298 21.9274 31.0348 23.0169C31.4028 23.3294 31.856 23.5222 32.3348 23.5699C32.4939 23.5699 32.642 23.5699 32.7846 23.5699C33.6689 23.6075 34.5389 23.336 35.2474 22.8012C35.1072 23.5594 34.7682 24.2659 34.2656 24.8474C33.8515 25.3321 33.3338 25.7158 32.7514 25.9696C32.169 26.2234 31.5371 26.3408 30.9032 26.3129C30.9076 26.5727 30.9672 26.8286 31.0779 27.0632C31.1886 27.2979 31.3478 27.5059 31.545 27.6733C31.9839 27.9699 32.4853 28.1592 33.0095 28.2263C33.0095 28.2263 31.0952 28.619 30.8867 31.467C30.8924 32.1917 30.719 32.9063 30.3821 33.5464H30.415C34.8525 33.5464 34.7373 29.7084 34.7373 29.7084C34.8522 30.0606 35.0547 30.3772 35.3255 30.628C35.5963 30.8787 35.9263 31.0553 36.2841 31.1408C36.4348 31.1786 36.5896 31.1972 36.7449 31.1961C36.9963 31.1944 37.2467 31.1628 37.4909 31.1021C37.0908 30.0328 37.0908 28.8532 37.4909 27.7839C37.8044 26.897 37.9568 25.9603 37.9406 25.0188C38.195 25.3257 38.5182 25.5671 38.8836 25.7229C39.2489 25.8787 39.6459 25.9445 40.0414 25.9147C40.3918 25.9199 40.7378 25.836 41.0475 25.6707C41.3571 25.5054 41.6205 25.2641 41.8131 24.9691C38.8567 23.7303 39.1474 19.7319 39.1474 19.7319C39.4889 19.9426 39.8824 20.0519 40.2828 20.0472L40.2718 20.0527ZM39.3942 24.2225C38.1929 23.6252 37.4305 22.0104 37.244 21.4574C37.0466 24.6096 35.5217 26.794 33.739 28.8955C33.193 29.5279 32.7689 30.2574 32.4884 31.0467C32.6343 30.2576 32.9674 29.5157 33.4593 28.8844C35.1048 26.8714 36.7065 24.3607 36.8217 21.4629C36.9129 19.7038 36.4812 17.9573 35.582 16.447C35.8626 17.265 35.9043 18.147 35.702 18.9882C35.4997 19.8294 35.0621 20.5943 34.4411 21.1919C34.4411 21.1919 37.4854 17.5088 33.2289 13.7372C31.523 12.2993 29.6581 11.4145 28.6982 10.7841C32.1648 11.9233 33.8597 10.6679 33.8597 10.6679C33.3796 11.0456 32.8241 11.3138 32.2313 11.4542C31.6385 11.5945 31.0226 11.6036 30.426 11.4809C30.6673 11.597 30.9197 11.7242 31.1884 11.868C34.112 13.4717 36.7449 16.1041 37.1892 19.7541V19.7264C37.8693 23.31 39.3832 24.228 39.3832 24.228" fill="white"></path> <path d="M11.4199 28.204C11.944 28.1368 12.4455 27.9475 12.8844 27.651C13.0815 27.4836 13.2408 27.2755 13.3515 27.0409C13.4622 26.8062 13.5218 26.5503 13.5262 26.2905C12.8915 26.3181 12.2589 26.2005 11.6757 25.9468C11.0925 25.693 10.5738 25.3095 10.1583 24.825C9.65878 24.2422 9.32183 23.5361 9.18195 22.7788C9.89048 23.3136 10.7605 23.5852 11.6448 23.5475C11.7929 23.5475 11.941 23.5475 12.1 23.5475C12.5787 23.4992 13.0317 23.3065 13.4 22.9945C11.7051 21.8885 10.5203 19.9971 11.5735 17.127C12.4182 14.8264 14.4367 13.1065 16.4772 11.8124C17.1518 11.3921 17.5523 10.9165 17.5523 10.5073C17.5523 9.54505 16.1974 9.51187 15.6434 8.84825C15.0017 8.09614 15.4021 6.87949 15.9561 6.1495C15.7967 6.12177 15.6351 6.10881 15.4734 6.11079C15.0199 6.10632 14.5703 6.19469 14.1516 6.37055C13.733 6.54641 13.3542 6.80609 13.038 7.13388C12.721 7.43838 12.4931 7.82477 12.3789 8.25091C12.2648 8.67706 12.2689 9.12662 12.3908 9.55058L12.0671 9.62247C11.886 9.65533 11.7026 9.67382 11.5186 9.67778H11.4034C9.7908 9.67778 9.07224 7.98 9.07224 7.98C9.07224 7.98 7.37734 10.1036 9.87307 11.7682C10.3064 12.0502 10.4984 12.3212 10.4216 12.5977L10.3832 12.7802L10.2022 12.8134C8.38112 13.3111 7.45962 14.5831 6.32419 16.0265C5.79284 16.7073 5.12044 17.2629 4.35398 17.6546C3.58752 18.0462 2.74549 18.2644 1.88672 18.2938H1.89769C1.89769 18.2938 2.4462 20.0524 4.09174 20.0524H4.16853C4.56884 20.0568 4.96231 19.9476 5.30396 19.7372C5.30396 19.7372 5.59467 23.7356 2.63818 24.9743C2.82947 25.2652 3.0896 25.5035 3.39509 25.6676C3.70057 25.8317 4.04179 25.9166 4.38794 25.9145C4.78176 25.938 5.17549 25.8671 5.53686 25.7075C5.89822 25.5479 6.21692 25.3042 6.46681 24.9965C6.44934 25.9376 6.59984 26.8742 6.9111 27.7616C7.30966 28.8311 7.30966 30.0101 6.9111 31.0797C7.15344 31.1401 7.40197 31.1717 7.65159 31.1737C7.80689 31.1751 7.96173 31.1566 8.11235 31.1184C8.46991 31.0324 8.79973 30.8557 9.07046 30.605C9.34119 30.3543 9.54384 30.038 9.65915 29.6861C9.65915 29.6861 9.54397 33.524 13.9869 33.524H14.0198C13.6838 32.8836 13.5105 32.1692 13.5152 31.4447C13.3342 28.6077 11.4199 28.204 11.4199 28.204ZM10.7068 28.9008C8.92415 26.7938 7.41573 24.6093 7.19633 21.4627C7.00983 22.0157 6.25289 23.625 5.05164 24.2278C5.05164 24.2278 6.56554 23.3097 7.2457 19.7262V19.7538C7.69548 16.1039 10.3229 13.466 13.2519 11.8677C13.5207 11.7184 13.773 11.5968 14.0143 11.4806C13.4186 11.6025 12.8037 11.593 12.2119 11.4527C11.6202 11.3124 11.0655 11.0446 10.5861 10.6677C10.5861 10.6677 12.281 11.923 15.7477 10.7838C14.7878 11.4143 12.9228 12.2991 11.2224 13.737C6.96047 17.5086 10.0102 21.1917 10.0102 21.1917C9.38865 20.5944 8.95061 19.8295 8.74832 18.9882C8.54603 18.1469 8.58802 17.2647 8.86929 16.4468C7.96663 17.9556 7.53473 19.7032 7.62965 21.4627C7.73387 24.3328 9.32456 26.8657 10.9701 28.8842C11.4683 29.5192 11.8053 30.2671 11.9519 31.0631C11.6701 30.2744 11.2461 29.5451 10.7013 28.9118" fill="white"></path> <path d="M18.9347 14.185C19.006 14.2625 19.0773 14.3509 19.1486 14.4339L19.198 14.4947L19.39 14.7657L19.4338 14.8265C19.5051 14.9371 19.5765 15.0588 19.6478 15.1805C19.8925 15.6722 20.2568 16.0934 20.7066 16.4047C21.1565 16.7161 21.6772 16.9076 22.2203 16.9612C22.7632 16.9071 23.2837 16.7154 23.7335 16.4041C24.1833 16.0928 24.5476 15.6718 24.7928 15.1805C24.8641 15.0588 24.9354 14.9371 25.0122 14.8265L25.0451 14.7768C25.111 14.6827 25.1768 14.5887 25.2426 14.4947L25.2865 14.4394C25.3578 14.3509 25.4291 14.2625 25.5059 14.185L25.5443 14.1518C25.878 13.7989 26.3009 13.5446 26.7675 13.4163L26.5316 13.2725L25.632 12.7195L24.7051 12.1665L22.2313 13.5214L19.7465 12.2163L18.8195 12.7693L17.9145 13.3223L17.6841 13.455C18.1508 13.5831 18.5738 13.8374 18.9073 14.1906L18.9457 14.2293L18.9347 14.185ZM21.2275 14.1187H23.3173V14.8431C23.2224 14.7506 23.108 14.6806 22.9827 14.6385C22.8574 14.5964 22.7243 14.5832 22.5933 14.5998V15.645C22.5987 15.9027 22.6664 16.1552 22.7907 16.3805H21.7431C21.8757 16.1426 21.9438 15.8737 21.9405 15.6008V14.5556C21.8095 14.5389 21.6764 14.5522 21.5511 14.5943C21.4258 14.6364 21.3115 14.7063 21.2165 14.7989L21.2275 14.1187Z" fill="white"></path> <path d="M22.001 12.6696V8.43348L19.3242 7.521L20.0318 11.6134L22.001 12.6696ZM21.4525 9.47316V10.1534L21.3208 10.0925C21.1195 10.0241 20.9332 9.91711 20.7723 9.77732C20.629 9.68602 20.5062 9.56558 20.4118 9.42369C20.3173 9.2818 20.2533 9.12159 20.2238 8.95332L21.4525 9.47316Z" fill="white"></path> <path d="M24.3979 11.6137L25.1 7.51025L22.4287 8.42274V12.6589L24.3979 11.6137ZM23.0046 9.46242L24.2224 8.94811C24.1928 9.11638 24.1288 9.27659 24.0344 9.41848C23.9399 9.56037 23.8171 9.68081 23.6738 9.77211C23.5129 9.91189 23.3266 10.0189 23.1253 10.0873L22.9937 10.1482L23.0046 9.46242Z" fill="white"></path> <path d="M18.2159 22.4913C18.455 22.5695 18.705 22.6087 18.9564 22.6074V22.53C18.9718 22.4809 18.9846 22.4311 18.9948 22.3807C19.0342 22.1597 19.0562 21.936 19.0606 21.7115C18.9113 21.6214 18.7897 21.4912 18.7096 21.3355C18.6763 21.2428 18.6149 21.1631 18.5342 21.1075C18.4535 21.0519 18.3575 21.0234 18.2598 21.0258C18.0169 21.0465 17.7831 21.1283 17.5797 21.2636C17.5474 21.5067 17.5894 21.7539 17.7002 21.9723C17.8109 22.1907 17.9851 22.3698 18.1995 22.4858" fill="white"></path> <path d="M24.1345 20.2461C23.6354 20.7991 22.6645 21.7393 22.6206 21.789L22.5603 21.8499L19.4886 21.8001C19.486 22.0557 19.4528 22.3101 19.3899 22.5577V22.6573L23.0375 23.3154C23.416 23.0499 24.4636 22.2757 24.8695 21.9771C24.6183 21.5883 24.526 21.1167 24.6117 20.6609C24.436 20.5498 24.2803 20.4096 24.151 20.2461" fill="white"></path> <path d="M24.5514 16.5186C24.0301 17.0892 23.3242 17.4539 22.5603 17.5472C22.4489 17.5529 22.3372 17.5529 22.2258 17.5472V17.5472C22.1143 17.5529 22.0026 17.5529 21.8912 17.5472C21.7805 17.5381 21.6705 17.5215 21.5621 17.4974C21.4914 17.7653 21.5107 18.0492 21.6169 18.3048C21.6955 18.4584 21.804 18.5943 21.9359 18.7046C22.0679 18.8148 22.2206 18.897 22.3848 18.9463L22.511 18.9961V19.1343C22.525 19.4169 22.6309 19.687 22.8123 19.9029C22.9937 20.1188 23.2406 20.2685 23.5148 20.3289C23.6738 20.163 23.8164 20.0136 23.9261 19.8865C23.8304 19.6918 23.799 19.4714 23.8365 19.2574C23.8741 19.0435 23.9785 18.8472 24.1346 18.6975C24.0902 19.0229 24.1426 19.3542 24.2851 19.6496C24.4277 19.9449 24.654 20.191 24.9354 20.3565L25.089 20.4284L25.0451 20.5943C24.9454 20.9178 24.9743 21.2677 25.1258 21.5701C25.2773 21.8725 25.5395 22.1036 25.8569 22.2147L26.0599 22.2921L25.9721 22.4912C25.8414 22.791 25.8294 23.1298 25.9386 23.4383C26.0477 23.7468 26.2696 24.0015 26.559 24.1502H28.8408V22.3253C28.5301 22.2848 28.2407 22.1438 28.0162 21.9234C27.7917 21.7031 27.6442 21.4152 27.5957 21.1031C27.2534 21.0576 26.9424 20.879 26.729 20.6054C26.595 20.4276 26.5175 20.213 26.5067 19.9899C26.496 19.7668 26.5524 19.5457 26.6687 19.3556C26.6738 19.7254 26.8078 20.0817 27.0472 20.362C27.2447 20.5687 27.5096 20.6964 27.7932 20.7215H27.9577V20.8929C27.974 21.1329 28.0674 21.361 28.2238 21.5426C28.3802 21.7242 28.591 21.8495 28.8244 21.8994V18.2163C28.8453 17.6328 28.9698 17.0578 29.1919 16.5186H24.5514Z" fill="white"></path> <path d="M18.4135 18.2274L18.3477 20.6054L18.6164 20.6441L19.2746 18.3657L18.94 17.6633L18.4135 18.2274Z" fill="white"></path> <path d="M25.632 29.1218H25.6978C26.1037 29.2379 26.2079 30.72 26.921 30.8528C26.9848 30.8594 27.0491 30.8594 27.1129 30.8528C27.2042 30.8532 27.2942 30.8307 27.3746 30.7872C27.4551 30.7438 27.5235 30.6807 27.5737 30.6039C27.5737 30.6039 27.2117 30.0509 26.9429 29.6472C26.5864 29.1439 26.3066 28.5411 25.6429 28.5411H25.5936C25.4656 28.5465 25.3419 28.5887 25.237 28.6628C25.0152 28.5164 24.7562 28.4376 24.491 28.436C24.1843 28.4733 23.8814 28.5381 23.586 28.6296V28.6296L22.0995 28.4803C21.8998 28.4319 21.7267 28.3069 21.6168 28.1319V28.0932C21.6168 28.0545 21.6168 28.0102 21.6168 27.9715C21.6273 27.5698 21.5015 27.1765 21.2601 26.8567C21.0187 26.5369 20.6763 26.3098 20.2894 26.2129C20.2894 26.2129 20.3278 25.9806 20.2401 25.8921L19.911 26.2903L18.8139 25.7373L19.5819 26.6387L18.9346 27.3742C18.9029 27.4051 18.8819 27.4455 18.875 27.4894C18.8681 27.5333 18.8755 27.5783 18.8962 27.6176L19.176 27.8664L19.5325 27.6508C19.5612 27.6427 19.5915 27.6427 19.6203 27.6508C19.719 27.6508 19.8671 27.6508 19.9987 27.6508C20.1304 27.6508 20.2675 27.6176 20.284 27.4849C20.2401 27.9383 19.8232 28.7291 20.0975 29.3485L20.2949 29.8628L18.984 29.6748L18.3696 30.72C18.2733 30.8539 18.2182 31.0135 18.2114 31.1787C18.2046 31.344 18.2463 31.5076 18.3312 31.6491L18.5616 31.9367C18.7208 31.774 18.854 31.5875 18.9565 31.3837L18.8523 31.2675C18.8143 31.2309 18.7907 31.1817 18.7856 31.1289C18.7806 31.0761 18.7945 31.0232 18.8249 30.9799L19.2089 30.3329L20.7612 30.7034L20.8434 30.5652C20.886 30.4916 20.9481 30.4314 21.0227 30.3914C21.0973 30.3513 21.1815 30.333 21.2658 30.3384C21.337 30.3328 21.4085 30.3328 21.4797 30.3384C21.8861 30.4212 22.2993 30.4656 22.7139 30.4712C22.948 30.4953 23.1846 30.4721 23.4098 30.4028C23.6349 30.3334 23.844 30.2194 24.0248 30.0675C24.5733 30.9081 25.7252 31.0408 25.632 31.4666L25.3303 32.9045C25.5277 32.9045 25.7197 32.9045 25.8788 32.8547L26.164 31.3615C26.1969 31.2012 26.2244 30.9799 26.2244 30.9799C26.0104 30.7975 25.8254 30.583 25.6758 30.344C25.4729 29.9569 25.5826 29.7522 25.3961 29.2379C25.4144 29.2038 25.4412 29.1751 25.4739 29.1547C25.5067 29.1343 25.5441 29.123 25.5826 29.1218H25.632ZM19.7793 27.0203C19.7615 27.0196 19.7441 27.0153 19.728 27.0076C19.7119 27 19.6975 26.9891 19.6857 26.9756C19.6739 26.9622 19.665 26.9465 19.6594 26.9294C19.6538 26.9124 19.6517 26.8944 19.6532 26.8765C19.6538 26.8586 19.6581 26.841 19.6657 26.8248C19.6734 26.8086 19.6842 26.7941 19.6975 26.7822C19.7108 26.7703 19.7264 26.7612 19.7433 26.7556C19.7602 26.75 19.778 26.7478 19.7958 26.7493C19.8314 26.7493 19.8656 26.7636 19.8908 26.789C19.916 26.8144 19.9302 26.8489 19.9302 26.8848C19.9302 26.9208 19.916 26.9552 19.8908 26.9806C19.8656 27.006 19.8314 27.0203 19.7958 27.0203" fill="white"></path> <path d="M17.7116 30.4825C17.7116 30.4825 18.2272 30.2668 18.2601 30.1175L18.1942 29.9461C18.1663 29.898 18.1565 29.8413 18.1666 29.7865C18.1766 29.7316 18.2059 29.6823 18.2491 29.6474L18.7976 29.2603L19.7246 29.4373C19.6203 29.2952 19.5662 29.1219 19.571 28.9451L18.7044 28.7571L17.8706 29.2714C17.7252 29.3807 17.6203 29.5359 17.5726 29.7123C17.5248 29.8887 17.5371 30.0761 17.6073 30.2447L17.7116 30.4825Z" fill="white"></path> <path d="M24.2664 32.9214H24.8149C24.8149 32.9214 25.2921 31.5167 25.3195 31.4725C24.965 31.3057 24.619 31.1212 24.2828 30.9194C24.4254 31.1351 24.771 31.3784 24.6997 31.5665L24.2664 32.9214Z" fill="white"></path> <path d="M28.8079 24.5818H15.6436V29.559C15.6436 31.6052 17.1081 32.8771 19.2747 32.8771C21.0848 32.8771 21.562 32.949 22.2312 33.6237C22.4408 33.3958 22.6956 33.2149 22.9792 33.093C23.2627 32.971 23.5685 32.9106 23.8767 32.9158V32.8384L24.2936 31.5443L23.586 30.7646C23.3018 30.8509 23.0048 30.8865 22.7084 30.8696C22.2663 30.8646 21.8256 30.8183 21.392 30.7314H21.2548C21.1945 30.7314 21.1945 30.7314 21.1781 30.7646L21.0958 30.9028L20.9477 31.1517L20.6625 31.0853L19.3954 30.7867L19.2199 31.0742V31.1074L19.3734 31.2789L19.3076 31.5001C19.1924 31.7709 19.0267 32.0168 18.8194 32.2245L18.5013 32.5674L18.2106 32.2024L17.9967 31.9314C17.8838 31.7821 17.8105 31.6063 17.7836 31.4206C17.7567 31.2348 17.7772 31.0452 17.8431 30.8696L17.4866 31.0189L17.3275 30.665L17.2397 30.4162C17.1315 30.1623 17.1122 29.8789 17.185 29.6126C17.2578 29.3462 17.4183 29.1128 17.6401 28.9506L18.6604 28.3976L19.6312 28.5912C19.6312 28.4972 19.6916 28.1598 19.719 28.0769H19.6642L19.1156 28.287L18.5671 27.911C18.5403 27.8842 18.5189 27.8524 18.5044 27.8172C18.4898 27.7821 18.4823 27.7444 18.4823 27.7064C18.4823 27.6683 18.4898 27.6306 18.5044 27.5955C18.5189 27.5603 18.5403 27.5285 18.5671 27.5017L19.0882 26.7054L17.7663 25.0463L19.7464 25.8316L19.8836 25.6657L20.1578 25.3339L20.4705 25.6325C20.553 25.7138 20.6102 25.8176 20.635 25.9312C21.1835 26.1524 22.1983 26.7994 22.2806 27.8501L21.9679 27.9773C22.0056 28.0318 22.0566 28.0757 22.116 28.1045L23.5641 28.2483L23.6957 28.2096C23.9433 28.1162 24.2048 28.0657 24.4691 28.0603C24.7313 28.0621 24.9899 28.1225 25.2261 28.2373C25.3319 28.1989 25.4428 28.1765 25.5552 28.1709H25.6265C26.3999 28.1709 26.7893 28.7571 27.0965 29.2216L27.2556 29.4539C27.5244 29.841 27.8809 30.4051 27.8973 30.4272L28.0564 30.6761L27.8589 30.9083C27.7687 31.0272 27.6524 31.1235 27.5192 31.1897C27.386 31.2558 27.2395 31.2902 27.091 31.2899C27.0035 31.2982 26.9153 31.2982 26.8277 31.2899C26.7486 31.2742 26.6714 31.2501 26.5974 31.218C26.5974 31.2955 26.5974 31.3895 26.5535 31.4669L26.3286 32.772C27.0516 32.6252 27.699 32.2233 28.1545 31.6384C28.6099 31.0535 28.8435 30.3241 28.8134 29.5811L28.8079 24.5818Z" fill="#FCE527"></path> <path d="M15.6273 24.1779H25.879C25.6741 23.961 25.5312 23.6923 25.4655 23.4002C25.3999 23.1081 25.4138 22.8036 25.506 22.5188C25.3672 22.4519 25.2381 22.3663 25.122 22.2644C24.7216 22.5631 23.4765 23.459 23.1803 23.6857L23.1145 23.7299L19.0884 23.011H19.0061C18.8746 23.0188 18.7427 23.0188 18.6112 23.011C18.5925 23.0984 18.5448 23.1766 18.4759 23.2329C18.4071 23.2892 18.3213 23.3202 18.2327 23.3207H18.1669C18.0633 23.3031 17.9707 23.245 17.9091 23.1592C17.8475 23.0733 17.8219 22.9664 17.8378 22.8617V22.7732C17.5838 22.5887 17.3888 22.3334 17.2767 22.0386C17.1647 21.7439 17.1404 21.4226 17.207 21.1142V21.0423L17.2673 20.998C17.2673 20.998 17.3441 20.9427 17.4483 20.8819L17.1576 20.8376C17.1056 20.8282 17.0593 20.7986 17.0285 20.7552C16.9978 20.7118 16.9851 20.6581 16.9931 20.6054C16.997 20.5791 17.0062 20.5538 17.02 20.5312C17.0338 20.5085 17.052 20.4888 17.0735 20.4734C17.095 20.4579 17.1193 20.4469 17.1451 20.4411C17.1708 20.4353 17.1975 20.4347 17.2234 20.4395L17.9201 20.5501L17.9859 18.0781L19.0226 16.972L19.6698 18.3435L18.9897 20.7215L19.604 20.8211C19.656 20.8305 19.7023 20.8601 19.7331 20.9035C19.7638 20.9469 19.7765 21.0006 19.7685 21.0533C19.7607 21.1002 19.7365 21.1427 19.7003 21.1731C19.664 21.2035 19.6182 21.2199 19.5711 21.2192H19.5382L19.039 21.1363V21.175C19.0945 21.2737 19.1788 21.3529 19.2804 21.4017L22.3466 21.4515L23.1309 20.6717C22.838 20.5697 22.5796 20.3863 22.3856 20.1426C22.1915 19.899 22.0696 19.6051 22.0339 19.2947C21.6519 19.1473 21.34 18.8585 21.1618 18.4873C21.0129 18.1378 20.9878 17.7473 21.0905 17.3813C20.6075 17.1904 20.1715 16.896 19.8124 16.5186H15.2598C15.4801 17.0584 15.6045 17.6331 15.6273 18.2163V24.1779Z" fill="#FCE527"></path> <path d="M19.845 26.7497C19.8272 26.7482 19.8094 26.7504 19.7925 26.756C19.7756 26.7617 19.76 26.7707 19.7467 26.7826C19.7334 26.7945 19.7226 26.809 19.7149 26.8252C19.7073 26.8414 19.703 26.859 19.7024 26.8769C19.7009 26.8948 19.703 26.9128 19.7086 26.9298C19.7142 26.9469 19.7232 26.9626 19.7349 26.976C19.7467 26.9895 19.7611 27.0004 19.7772 27.008C19.7933 27.0157 19.8107 27.02 19.8285 27.0207C19.8642 27.0207 19.8984 27.0064 19.9236 26.981C19.9488 26.9556 19.9629 26.9212 19.9629 26.8852C19.9629 26.8493 19.9488 26.8148 19.9236 26.7894C19.8984 26.764 19.8642 26.7497 19.8285 26.7497" fill="#222220"></path> <path d="M28.7914 35.8192L28.0345 35.5261L28.2429 34.7353L28.4733 33.8726C27.4368 34.4072 26.3511 34.8387 25.2316 35.1611C24.6831 35.3159 24.2881 35.3878 24.2881 35.3878V35.9464C23.6133 36.0568 22.9313 36.116 22.2477 36.1234H22.1873C21.5037 36.1161 20.8216 36.0569 20.1469 35.9464V35.3934C20.1469 35.3934 19.7464 35.3159 19.1979 35.1611C18.0784 34.8389 16.9926 34.4074 15.9562 33.8726L16.1811 34.7353L16.395 35.5261L15.6326 35.8192L14.8098 36.1344C15.9413 36.7262 17.1213 37.2184 18.3368 37.6055L18.046 38.4018C19.3704 38.9126 20.7807 39.1587 22.1983 39.1263H22.2312C23.6488 39.159 25.0592 38.9129 26.3834 38.4018L26.0982 37.6055C27.3121 37.219 28.4904 36.7268 29.6197 36.1344L28.7914 35.8192ZM15.7039 36.1897L16.9545 35.7694L16.587 34.5528C17.3918 34.9572 18.2284 35.2939 19.0882 35.5593L18.4849 37.2183C17.528 36.9624 16.5984 36.6123 15.7094 36.1731L15.7039 36.1897ZM22.2202 38.7115C21.0138 38.7049 19.8134 38.5394 18.6494 38.2193L19.3899 36.1952C20.3138 36.4294 21.2621 36.5519 22.2147 36.5602H22.2751C23.2277 36.5514 24.1759 36.4289 25.0999 36.1952L25.8404 38.2193C24.6704 38.549 23.4624 38.7219 22.2477 38.7336L22.2202 38.7115ZM25.9885 37.2349L25.3852 35.5759C26.245 35.3106 27.0816 34.9739 27.8864 34.5694L27.5189 35.786L28.764 36.2063C27.8752 36.6459 26.9455 36.996 25.9885 37.2515" fill="#222220"></path> <path d="M22.2149 4.25294C23.4549 4.21888 24.672 4.59362 25.6815 5.32027C25.8388 4.49993 26.1417 3.71495 26.5756 3.00312L25.3305 3.1469L24.6832 1.74776L23.4271 2.40032L22.2149 1.18921L21.0027 2.40032L19.7466 1.74776L19.0994 3.1469L17.8542 3.00312C18.2885 3.71478 18.5914 4.49982 18.7483 5.32027C19.7582 4.59435 20.9751 4.21969 22.2149 4.25294V4.25294ZM19.0445 3.63356L19.3901 3.67227L19.5382 3.35705L19.9715 2.41692L20.7778 2.83721L21.0905 2.99759L21.3428 2.76532L22.2149 1.87495L23.0871 2.76532L23.3394 3.01418L23.652 2.8538L24.4529 2.43351L24.8917 3.37364L25.0398 3.68886L25.3853 3.65015L25.7144 3.61144C25.5814 3.91722 25.4678 4.23123 25.3744 4.55158C24.3974 4.04687 23.3154 3.78365 22.2177 3.78365C21.1199 3.78365 20.0379 4.04687 19.061 4.55158C18.9669 4.23143 18.8534 3.91745 18.7209 3.61144L19.0445 3.63356Z" fill="#222220"></path> <path d="M40.3486 20.5944C42.3452 20.5944 43.0144 18.5427 43.0418 18.4542L43.2667 17.7297H42.5152C41.7348 17.7025 40.9697 17.5037 40.2734 17.1475C39.577 16.7912 38.9662 16.2859 38.4836 15.667L38.3355 15.4845C37.3153 14.1738 36.3444 12.9295 34.6111 12.3599C34.6798 12.2989 34.7532 12.2434 34.8305 12.194C35.2376 11.962 35.5903 11.6443 35.8648 11.2626C36.1393 10.8809 36.3291 10.4441 36.4212 9.98191C36.5151 9.13668 36.279 8.2878 35.763 7.61498L35.2145 6.9237L34.8689 7.7477C34.8689 7.79748 34.2601 9.11919 33.0314 9.11919H32.9107H32.6694C32.7028 8.68927 32.6436 8.25714 32.4959 7.85242C32.3483 7.44771 32.1155 7.07996 31.8137 6.77439C31.4467 6.39629 31.0079 6.09662 30.5235 5.89329C30.0391 5.68995 29.519 5.58712 28.9944 5.59092C28.7979 5.59011 28.6016 5.6049 28.4074 5.63516L27.5682 5.80107L28.0893 6.49235C28.4952 7.04537 28.8627 8.00209 28.4294 8.5164C28.2217 8.69846 27.9841 8.84257 27.7273 8.94223C27.1788 9.20215 26.3889 9.57267 26.3889 10.5017C26.3889 11.1045 26.8552 11.735 27.6944 12.2714C30.1682 13.8531 31.6985 15.4845 32.3622 17.3205C33.3879 20.1188 32.0496 21.7115 30.7496 22.5521L30.1682 22.9281L30.6783 23.3982C31.1328 23.7908 31.6955 24.034 32.2909 24.095C32.4664 24.095 32.631 24.095 32.7901 24.095C33.2992 24.0969 33.8057 24.0223 34.293 23.8738C34.1701 24.09 34.0269 24.2937 33.8652 24.4821C33.4995 24.9104 33.0415 25.2486 32.5262 25.471C32.0109 25.6934 31.452 25.794 30.8922 25.7651H30.404L30.3656 26.2573C30.3635 26.5981 30.4356 26.9352 30.5768 27.2448C30.718 27.5544 30.9249 27.8289 31.1829 28.0491C31.3197 28.1701 31.4731 28.2706 31.6382 28.3477C31.2365 28.7428 30.9159 29.2138 30.6947 29.7337C30.4735 30.2537 30.3561 30.8125 30.3492 31.3783C30.3483 32.0046 30.2077 32.6226 29.9378 33.1867L29.3893 34.0162H30.3656C31.9783 34.0162 33.2124 33.5701 34.0681 32.6779C34.512 32.2069 34.8423 31.6392 35.0335 31.0188C35.3507 31.288 35.7266 31.4775 36.1305 31.5718C36.323 31.6167 36.5199 31.6389 36.7174 31.6382C37.013 31.6374 37.3075 31.6021 37.595 31.5331L38.2203 31.3672L37.9461 30.781C37.6016 29.8444 37.6016 28.8143 37.9461 27.8777C38.1493 27.2669 38.2908 26.6369 38.3684 25.9974C38.8625 26.251 39.4102 26.3801 39.9646 26.3734C40.4113 26.38 40.8523 26.2724 41.2465 26.0606C41.6407 25.8488 41.9753 25.5398 42.219 25.1623L42.5207 24.6093L41.9722 24.377C40.1347 23.6083 39.7288 21.54 39.6465 20.4229C39.8273 20.4599 40.0107 20.4821 40.195 20.4893L40.3486 20.5944ZM41.8076 24.9743C41.6148 25.2675 41.3521 25.5073 41.0435 25.6715C40.7349 25.8358 40.3903 25.9193 40.0414 25.9144C39.6476 25.938 39.2539 25.867 38.8925 25.7075C38.5311 25.5479 38.2124 25.3042 37.9625 24.9964C37.9786 25.9379 37.8262 26.8746 37.5128 27.7615C37.1127 28.8308 37.1127 30.0104 37.5128 31.0797C37.2686 31.1405 37.0182 31.172 36.7668 31.1737C36.6115 31.1748 36.4567 31.1562 36.306 31.1184C35.9485 31.0324 35.6187 30.8557 35.3479 30.605C35.0772 30.3543 34.8745 30.0379 34.7592 29.686C34.7592 29.686 34.8744 33.524 30.4369 33.524H30.404C30.7409 32.8839 30.9143 32.1693 30.9087 31.4446C31.1006 28.6076 33.0095 28.2039 33.0095 28.2039C32.4853 28.137 31.9838 27.9476 31.5449 27.6509C31.3478 27.4835 31.1885 27.2755 31.0778 27.0408C30.9671 26.8062 30.9076 26.5503 30.9032 26.2905C31.5371 26.3184 32.169 26.201 32.7514 25.9472C33.3338 25.6934 33.8515 25.3097 34.2656 24.825C34.7682 24.2435 35.1072 23.537 35.2474 22.7788C34.5389 23.3136 33.6689 23.5851 32.7846 23.5475C32.642 23.5475 32.4884 23.5475 32.3348 23.5475C31.856 23.4999 31.4028 23.307 31.0348 22.9945C32.7242 21.8884 33.909 19.9971 32.8614 17.1269C32.0167 14.8264 29.9926 13.1065 27.9577 11.8124C27.283 11.3921 26.8771 10.9165 26.8771 10.5073C26.8771 9.54502 28.2319 9.51737 28.7914 8.84821C29.4332 8.09611 29.0327 6.87946 28.4733 6.14947C28.6327 6.1218 28.7942 6.10884 28.956 6.11076C29.4094 6.10629 29.8591 6.19466 30.2777 6.37052C30.6963 6.54638 31.0752 6.80606 31.3914 7.13385C31.7083 7.43835 31.9363 7.82473 32.0504 8.25088C32.1645 8.67703 32.1605 9.12659 32.0386 9.55055L32.3348 9.61138C32.5159 9.64451 32.6993 9.66301 32.8833 9.66669H33.004C34.6111 9.66669 35.3352 7.96891 35.3352 7.96891C35.3352 7.96891 37.0465 10.0925 34.5289 11.7516C34.0955 12.0336 33.9035 12.3046 33.9803 12.5811L34.0187 12.7636L34.1997 12.7968C36.0263 13.2945 36.9423 14.5664 38.0777 16.0098C38.6093 16.6904 39.2818 17.2458 40.0482 17.6374C40.8146 18.029 41.6565 18.2474 42.5152 18.2772H42.5481C42.5481 18.2772 41.9996 20.0358 40.3541 20.0358H40.2773C39.8769 20.0405 39.4834 19.9313 39.1419 19.7206C39.1419 19.7206 38.8511 23.7189 41.8076 24.9577" fill="#222220"></path> <path d="M36.8329 12.609C37.4481 12.9607 37.9813 13.4416 38.3961 14.0192C38.7075 14.5065 39.1537 14.891 39.6796 15.1252C39.8794 15.1927 40.0888 15.2263 40.2995 15.2248C40.7117 15.2235 41.1156 15.1077 41.4668 14.8902C41.8181 14.6726 42.1031 14.3617 42.2906 13.9915L42.6087 13.2726L41.8353 13.2284C41.0033 13.076 40.2483 12.6408 39.6961 11.9951C39.4926 11.7724 39.246 11.5942 38.9714 11.4715C38.6969 11.3488 38.4002 11.2842 38.0999 11.2817C37.6305 11.2891 37.1726 11.429 36.778 11.6854L36.0649 12.1887L36.8329 12.609ZM38.0999 11.8237C38.33 11.8249 38.5572 11.8748 38.7669 11.9701C38.9767 12.0653 39.1643 12.2038 39.3176 12.3767C39.9618 13.1161 40.8396 13.6084 41.8024 13.7703C41.6559 14.0442 41.4392 14.2734 41.1748 14.434C40.9104 14.5945 40.6081 14.6804 40.2995 14.6828C40.1445 14.683 39.9905 14.6569 39.8442 14.6054C38.9556 14.3012 38.643 12.9463 37.1016 12.1279C37.4046 11.9312 37.7561 11.8239 38.1164 11.8182" fill="#222220"></path> <path d="M37.1839 19.7263C36.7341 16.0763 34.1067 13.4384 31.1831 11.8402C30.9143 11.6909 30.662 11.5692 30.4207 11.4531C31.0173 11.5755 31.6331 11.5662 32.2259 11.4258C32.8186 11.2855 33.3741 11.0175 33.8544 10.6401C33.8544 10.6401 32.1595 11.8955 28.6929 10.7563C29.6528 11.3867 31.5177 12.2715 33.2236 13.7094C37.4801 17.481 34.4358 21.1641 34.4358 21.1641C35.0577 20.5671 35.4964 19.8025 35.6996 18.9613C35.9029 18.1201 35.8621 17.2377 35.5822 16.4192C36.4814 17.9295 36.913 19.676 36.8218 21.4351C36.7012 24.3329 35.105 26.8658 33.4595 28.8843C32.9632 29.5198 32.6281 30.2677 32.4831 31.0632C32.7635 30.2739 33.1877 29.5443 33.7337 28.9119C35.5164 26.8049 37.0248 24.6205 37.2387 21.4738C37.4252 22.0268 38.1821 23.6361 39.3889 24.2389C39.3889 24.2389 37.875 23.3209 37.1948 19.7373" fill="#222220"></path> <path d="M14.4862 33.2257C14.2203 32.6602 14.0799 32.0431 14.0748 31.4173C14.0672 30.8512 13.9489 30.2921 13.7268 29.7721C13.5047 29.2521 13.1831 28.7813 12.7804 28.3867C12.9457 28.31 13.099 28.2094 13.2356 28.0881C13.4939 27.8682 13.701 27.5937 13.8423 27.284C13.9835 26.9743 14.0554 26.6371 14.0529 26.2963L14.02 25.8041H13.5263C12.9675 25.8321 12.4096 25.7311 11.8954 25.5088C11.3811 25.2864 10.924 24.9486 10.5589 24.5211C10.398 24.332 10.2548 24.1284 10.131 23.9128C10.6183 24.0616 11.1249 24.1362 11.634 24.134C11.793 24.134 11.9576 24.134 12.1331 24.134C12.7304 24.0737 13.2951 23.8306 13.7512 23.4372L14.2613 22.9671L13.6799 22.5911C12.3745 21.7505 11.0416 20.1578 12.0673 17.3595C12.731 15.54 14.2613 13.8976 16.7571 12.3159C17.5963 11.7629 18.0571 11.1491 18.0571 10.5463C18.0571 9.6172 17.2836 9.24667 16.7187 8.98675C16.4617 8.8875 16.224 8.74336 16.0166 8.56093C15.5778 8.04662 15.9453 7.06777 16.3567 6.53687L16.9052 5.84559L16.0605 5.67969C15.8663 5.64921 15.67 5.63442 15.4736 5.63544C14.9455 5.61998 14.4198 5.713 13.9285 5.90885C13.4372 6.1047 12.9906 6.39928 12.6158 6.77467C12.3086 7.07863 12.0706 7.44621 11.9181 7.85201C11.7656 8.25781 11.7024 8.69214 11.7327 9.12501H11.4913H11.4036C10.1694 9.12501 9.58801 7.80882 9.56607 7.75352L9.2205 6.92951L8.67199 7.62079C8.16206 8.29651 7.92846 9.1436 8.01926 9.98772C8.11012 10.4497 8.29878 10.8865 8.57235 11.2682C8.84592 11.65 9.19797 11.9677 9.60446 12.1998C9.68205 12.2489 9.75544 12.3043 9.82387 12.3657C8.09057 12.9187 7.1197 14.1796 6.09946 15.4903L5.95136 15.6783C5.46818 16.298 4.85651 16.8036 4.15916 17.1599C3.46182 17.5163 2.69565 17.7146 1.91431 17.7411H1.16284L1.39322 18.4655C1.39322 18.554 2.08434 20.6057 4.08642 20.6057H4.18515C4.36944 20.5982 4.55284 20.576 4.73366 20.5394C4.65139 21.6454 4.24549 23.7248 2.40248 24.4935L1.85397 24.7257L2.15565 25.2787C2.39934 25.6562 2.73392 25.9652 3.12814 26.177C3.52237 26.3888 3.96339 26.4964 4.41004 26.4899C4.96256 26.4954 5.50823 26.3664 6.00073 26.1138C6.07788 26.7534 6.21939 27.3834 6.42308 27.9941C6.76757 28.9307 6.76757 29.9608 6.42308 30.8974L6.14883 31.4836L6.77413 31.6495C7.06169 31.7185 7.35618 31.7538 7.65175 31.7546C7.84928 31.7555 8.04625 31.7333 8.23866 31.6883C8.64271 31.5944 9.01876 31.4048 9.33569 31.1352C9.52669 31.7557 9.85704 32.3235 10.3011 32.7943C11.1604 33.6828 12.3946 34.1289 14.0035 34.1326H14.9799L14.4862 33.2257ZM14.0145 33.5353C9.57704 33.5353 9.68674 29.6974 9.68674 29.6974C9.57143 30.0493 9.36878 30.3656 9.09805 30.6163C8.82732 30.867 8.4975 31.0437 8.13993 31.1297C7.98932 31.1679 7.83447 31.1865 7.67918 31.185C7.42954 31.1831 7.181 31.1516 6.93869 31.091C7.33724 30.0215 7.33724 28.8424 6.93869 27.7729C6.62742 26.8855 6.47693 25.9489 6.49439 25.0078C6.24451 25.3155 5.92581 25.5592 5.56445 25.7188C5.20308 25.8784 4.80934 25.9493 4.41553 25.9258H4.3881C4.03775 25.931 3.69175 25.8471 3.38209 25.6818C3.07242 25.5165 2.80908 25.2752 2.6164 24.9801C5.57289 23.7413 5.28218 19.743 5.28218 19.743C4.94053 19.9534 4.54706 20.0626 4.14675 20.0582H4.08642C2.44088 20.0582 1.89236 18.2996 1.89236 18.2996H1.92528C2.78455 18.2716 3.62737 18.0547 4.39481 17.664C5.16224 17.2733 5.83575 16.7183 6.36823 16.0378C7.49817 14.5944 8.41967 13.3224 10.2462 12.8247L10.4272 12.7915L10.4656 12.609C10.515 12.327 10.323 12.056 9.91711 11.7795C7.39944 10.1204 9.1108 7.99684 9.1108 7.99684C9.1108 7.99684 9.82387 9.69462 11.442 9.69462H11.5188C11.7028 9.69064 11.8862 9.67215 12.0673 9.63932L12.3635 9.57848C12.241 9.15457 12.2366 8.70484 12.3508 8.27857C12.4649 7.8523 12.6933 7.46593 13.0107 7.16178C13.3269 6.83399 13.7058 6.57431 14.1244 6.39845C14.543 6.2226 14.9927 6.13423 15.4461 6.13869C15.6079 6.13665 15.7694 6.14961 15.9288 6.17741C15.3803 6.91292 14.9744 8.12957 15.6162 8.87615C16.1647 9.52318 17.525 9.55083 17.525 10.5352C17.525 10.9444 17.1465 11.42 16.4718 11.8459C14.4314 13.1399 12.4074 14.8598 11.5681 17.1604C10.5205 20.0306 11.7053 21.9385 13.3947 23.028C13.0264 23.3399 12.5733 23.5326 12.0947 23.581C11.9356 23.581 11.7875 23.581 11.6394 23.581C10.7552 23.6186 9.88515 23.347 9.17662 22.8123C9.31651 23.5695 9.65346 24.2757 10.153 24.8585C10.5684 25.3429 11.0872 25.7264 11.6704 25.9802C12.2536 26.234 12.8862 26.3515 13.5208 26.324C13.5164 26.5838 13.4569 26.8396 13.3462 27.0743C13.2355 27.3089 13.0762 27.517 12.8791 27.6844C12.4401 27.9809 11.9387 28.1703 11.4146 28.2374C11.4146 28.2374 13.3289 28.6301 13.5373 31.4781C13.5326 32.2026 13.7059 32.917 14.0419 33.5575L14.0145 33.5353Z" fill="#222220"></path> <path d="M4.13042 15.2192C4.34105 15.2207 4.55047 15.187 4.75024 15.1197C5.27631 14.8858 5.72263 14.5012 6.03376 14.0137C6.44705 13.4367 6.97825 12.9558 7.59154 12.6035L8.35945 12.1887L7.64639 11.6854C7.25364 11.4294 6.79757 11.2896 6.32996 11.2817C6.02923 11.2849 5.73236 11.3503 5.45778 11.474C5.1832 11.5977 4.93676 11.7769 4.73378 12.0007C4.1827 12.6449 3.4299 13.08 2.60006 13.2339L1.82666 13.2726L2.13931 13.9915C2.3271 14.3598 2.61157 14.6691 2.9617 14.8856C3.31184 15.1021 3.7142 15.2175 4.12493 15.2192H4.13042ZM5.10677 12.3767C5.26013 12.2038 5.44773 12.0653 5.65747 11.9701C5.86721 11.8748 6.09443 11.8249 6.32447 11.8237C6.68284 11.8308 7.03223 11.938 7.33373 12.1334C5.78144 12.9685 5.45782 14.3068 4.59117 14.6109C4.44674 14.6625 4.2946 14.6887 4.14139 14.6883C3.83022 14.688 3.52499 14.6024 3.25834 14.4407C2.99168 14.279 2.77363 14.0473 2.62749 13.7703C3.59045 13.6089 4.46836 13.1165 5.11226 12.3767" fill="#222220"></path> <path d="M7.61904 21.4571C7.52412 19.6976 7.95602 17.95 8.85868 16.4412C8.57808 17.2596 8.53696 18.1422 8.74023 18.9835C8.9435 19.8248 9.38259 20.5895 10.0051 21.1861C10.0051 21.1861 6.95534 17.503 11.2173 13.7314C12.9232 12.2935 14.7826 11.4087 15.7425 10.7782C12.2759 11.9175 10.581 10.6621 10.581 10.6621C11.0604 11.039 11.6151 11.3068 12.2068 11.4471C12.7986 11.5874 13.4135 11.597 14.0092 11.475C13.7679 11.5912 13.5156 11.7184 13.2468 11.8622C10.3232 13.4659 7.67938 16.1038 7.24606 19.7538V19.7261C6.5659 23.3097 5.052 24.2277 5.052 24.2277C6.25325 23.6305 7.01568 22.0156 7.19669 21.4626C7.39964 24.6148 8.92451 26.7993 10.7072 28.9007C11.2521 29.5339 11.6761 30.2633 11.9578 31.052C11.8078 30.2594 11.469 29.5154 10.9705 28.8841C9.32492 26.8656 7.73423 24.3328 7.61904 21.4571Z" fill="#222220"></path> <path d="M21.2109 14.0745V14.7989C21.3065 14.7056 21.4217 14.6352 21.5481 14.5931C21.6744 14.5509 21.8085 14.5381 21.9405 14.5556V15.6008C21.9362 15.8587 21.8683 16.1115 21.743 16.3363H22.7797C22.6554 16.111 22.5876 15.8585 22.5822 15.6008V14.5556C22.7133 14.539 22.8464 14.5522 22.9717 14.5943C23.097 14.6364 23.2113 14.7064 23.3063 14.7989V14.0745H21.2109Z" fill="#222220"></path> <path d="M20.7668 9.78299C20.9277 9.92277 21.114 10.0298 21.3153 10.0982L21.4469 10.159V9.47329L20.2292 8.95898C20.2588 9.12726 20.3228 9.28746 20.4172 9.42935C20.5117 9.57124 20.6345 9.69169 20.7778 9.78299" fill="#222220"></path> <path d="M23.6628 9.78299C23.8061 9.69169 23.9289 9.57124 24.0234 9.42935C24.1178 9.28746 24.1818 9.12726 24.2113 8.95898L22.9937 9.47329V10.1535L23.1198 10.0927C23.3211 10.0243 23.5074 9.91724 23.6683 9.77745" fill="#222220"></path> <path d="M25.8514 7.00668C25.8514 5.97253 24.1236 5.04346 22.2203 5.04346C20.3169 5.04346 18.5891 5.97253 18.5891 7.00668L18.6275 7.26107L19.3899 11.6852L18.6275 12.1332L16.6364 13.2724C16.6364 13.2724 16.1921 13.5047 15.9837 13.6429C15.2322 14.196 15.0731 14.937 15.5065 15.2578C15.56 14.8934 15.7443 14.5616 16.0243 14.3251C16.3044 14.0887 16.6607 13.964 17.0258 13.9747C17.337 13.9837 17.6418 14.0664 17.9153 14.2163C18.1888 14.3662 18.4234 14.579 18.6001 14.8375C18.7075 14.9711 18.8064 15.1115 18.8963 15.2578C19.0115 15.4458 19.1266 15.6117 19.2418 15.7721H14.1626C14.5899 16.515 14.8396 17.3481 14.8921 18.2054V29.581C14.8921 32.3461 16.9929 33.6457 19.2802 33.6457C21.0355 33.6457 21.2713 33.5627 22.2367 34.5361C23.2021 33.5627 23.438 33.6457 25.1932 33.6457C27.464 33.6457 29.5813 32.335 29.5813 29.581V18.2164C29.6338 17.3592 29.8836 16.5261 30.3108 15.7831H25.1767C25.2919 15.6227 25.4071 15.4568 25.5223 15.2688C25.6135 15.1234 25.7124 14.9831 25.8185 14.8485C25.996 14.5896 26.2316 14.3766 26.5061 14.2267C26.7805 14.0768 27.0862 13.9943 27.3982 13.9858C27.7634 13.9751 28.1197 14.0997 28.3997 14.3362C28.6798 14.5727 28.864 14.9045 28.9176 15.2688C29.3564 14.9536 29.1973 14.1628 28.4404 13.654C28.2374 13.5102 27.7932 13.2835 27.7932 13.2835L25.8185 12.1111L25.0561 11.6631L25.8185 7.23895L25.8514 7.00668ZM19.3241 7.51546L22.0009 8.42794V12.6641L20.0317 11.6133L19.3241 7.51546ZM19.8726 16.5186C20.2315 16.8963 20.6676 17.1906 21.1507 17.3814C21.048 17.7474 21.0731 18.1379 21.222 18.4874C21.4002 18.8586 21.7121 19.1474 22.0941 19.2948C22.1298 19.6052 22.2517 19.8991 22.4458 20.1427C22.6398 20.3863 22.8982 20.5697 23.1911 20.6718C22.862 21.0092 22.5384 21.3244 22.4068 21.4516L19.3406 21.4018C19.2389 21.353 19.1547 21.2738 19.0992 21.1751V21.1364L19.5984 21.2193H19.6313C19.6784 21.22 19.7242 21.2036 19.7604 21.1732C19.7967 21.1428 19.8209 21.1003 19.8287 21.0534C19.8367 21.0007 19.824 20.947 19.7933 20.9036C19.7625 20.8602 19.7162 20.8306 19.6642 20.8211L19.0499 20.7216L19.73 18.3436L19.0828 16.9721L18.0461 18.0782L17.9803 20.5502L17.2836 20.4396C17.2577 20.4348 17.231 20.4354 17.2053 20.4412C17.1795 20.447 17.1552 20.458 17.1337 20.4735C17.1122 20.4889 17.094 20.5086 17.0802 20.5312C17.0664 20.5539 17.0572 20.5792 17.0533 20.6055C17.0453 20.6582 17.058 20.7119 17.0887 20.7553C17.1195 20.7987 17.1658 20.8283 17.2178 20.8377L17.5085 20.882C17.4043 20.9428 17.333 20.987 17.3275 20.9981L17.2672 21.0423V21.1142C17.2013 21.4227 17.2259 21.7437 17.3379 22.0383C17.4499 22.3329 17.6445 22.5883 17.898 22.7733V22.8618C17.8821 22.9665 17.9077 23.0734 17.9693 23.1592C18.0309 23.2451 18.1235 23.3031 18.2271 23.3208H18.2929C18.3815 23.3203 18.4673 23.2893 18.5361 23.233C18.6049 23.1767 18.6527 23.0984 18.6714 23.0111C18.8011 23.0187 18.9311 23.0187 19.0608 23.0111H19.1431L23.1637 23.7466L23.2295 23.7024C23.5477 23.4756 24.7708 22.5963 25.1713 22.2811C25.2873 22.3829 25.4165 22.4685 25.5552 22.5355C25.4631 22.8202 25.4491 23.1248 25.5148 23.4169C25.5804 23.709 25.7233 23.9777 25.9282 24.1946H15.6271V18.2164C15.6043 17.6331 15.4799 17.0585 15.2596 16.5186H19.8726ZM24.8422 21.977C24.4363 22.2811 23.3886 23.0498 23.0101 23.3153L19.3625 22.6738V22.5742C19.4252 22.3265 19.4584 22.0722 19.4612 21.8166L22.5329 21.8664L22.5932 21.8055C22.6426 21.7557 23.6135 20.8101 24.1071 20.2626C24.2366 20.4258 24.3924 20.566 24.5679 20.6774C24.4815 21.1332 24.5739 21.605 24.8257 21.9935L24.8422 21.977ZM18.7317 21.341C18.8119 21.4967 18.9334 21.6269 19.0828 21.717C19.0782 21.9415 19.0562 22.1652 19.0169 22.3862C19.0169 22.436 19.0169 22.4857 18.9785 22.5355V22.6129C18.7272 22.6143 18.4772 22.575 18.2381 22.4968C18.0242 22.3806 17.8507 22.2013 17.7409 21.9828C17.6311 21.7643 17.5902 21.5172 17.6237 21.2746C17.8186 21.1347 18.0447 21.0454 18.2819 21.0147C18.3798 21.0114 18.4762 21.0397 18.5571 21.0954C18.6379 21.1511 18.6991 21.2313 18.7317 21.3244V21.341ZM18.3532 20.5889L18.4136 18.2496L18.9621 17.6966L19.2967 18.3989L18.644 20.6774L18.3532 20.5889ZM24.8202 32.9102H24.2717L24.6831 31.5553C24.7489 31.3673 24.4088 31.1239 24.2662 30.9082C24.6022 31.1103 24.9482 31.2949 25.3029 31.4613C25.3029 31.5055 24.7983 32.9102 24.7983 32.9102H24.8202ZM26.1641 31.3562L25.8788 32.8493C25.6978 32.8493 25.5059 32.8881 25.3303 32.8991L25.632 31.4613C25.7198 31.0354 24.5844 30.9082 24.0249 30.0621C23.8441 30.2141 23.635 30.3281 23.4098 30.3974C23.1847 30.4667 22.9481 30.49 22.7139 30.4658C22.2993 30.4603 21.8862 30.4159 21.4798 30.3331C21.4086 30.3273 21.337 30.3273 21.2658 30.3331C21.1814 30.327 21.097 30.345 21.0223 30.3851C20.9476 30.4253 20.8856 30.4858 20.8435 30.5598L20.7612 30.6981L19.198 30.3165L18.825 30.9691C18.7957 31.0127 18.7824 31.0653 18.7874 31.1178C18.7924 31.1703 18.8154 31.2194 18.8524 31.2566L18.9566 31.3728C18.8541 31.5766 18.7209 31.7631 18.5617 31.9258L18.3313 31.6382C18.2463 31.4967 18.2046 31.3331 18.2115 31.1679C18.2183 31.0026 18.2733 30.843 18.3697 30.7092L18.984 29.6639L20.295 29.863L20.092 29.393C19.8178 28.7736 20.2346 27.9828 20.2785 27.5293C20.2785 27.6675 20.1359 27.6952 19.9933 27.6952C19.8507 27.6952 19.7136 27.6952 19.6148 27.6952C19.5861 27.6869 19.5557 27.6869 19.5271 27.6952L19.1705 27.9109L18.8908 27.6509C18.8701 27.6117 18.8627 27.5667 18.8696 27.5228C18.8765 27.4789 18.8974 27.4385 18.9292 27.4076L19.5764 26.6721L18.8085 25.7707L19.9055 26.3237L20.2346 25.9255C20.3224 26.014 20.284 26.2463 20.284 26.2463C20.6708 26.3431 21.0133 26.5703 21.2547 26.8901C21.4961 27.2099 21.6219 27.6032 21.6114 28.0049C21.6114 28.0436 21.6114 28.0823 21.6114 28.1265V28.1653C21.7208 28.3407 21.8941 28.4658 22.0941 28.5137L23.5806 28.663C23.876 28.5715 24.1788 28.5067 24.4856 28.4694C24.7507 28.471 25.0098 28.5497 25.2316 28.6962C25.3363 28.6218 25.4601 28.5795 25.5881 28.5745H25.6375C26.3012 28.5745 26.5809 29.1828 26.9375 29.6805C27.2062 30.0621 27.5683 30.6373 27.5683 30.6373C27.5181 30.7141 27.4496 30.7771 27.3692 30.8206C27.2887 30.864 27.1988 30.8866 27.1075 30.8861C27.0437 30.8926 26.9794 30.8926 26.9155 30.8861C26.2025 30.7534 26.0982 29.2713 25.6923 29.1552H25.6265C25.5881 29.1563 25.5506 29.1677 25.5179 29.1881C25.4851 29.2085 25.4583 29.2372 25.44 29.2713C25.6265 29.7745 25.5168 29.9792 25.7198 30.3773C25.8693 30.6163 26.0543 30.8308 26.2683 31.0133C26.2683 31.0133 26.2409 31.2345 26.208 31.3949L26.1641 31.3562ZM18.2051 29.946L18.271 30.1174C18.2271 30.2667 17.7225 30.4824 17.7225 30.4824L17.6127 30.2391C17.5425 30.0705 17.5302 29.8831 17.578 29.7067C17.6257 29.5303 17.7306 29.375 17.876 29.2658L18.7043 28.757L19.5874 28.945C19.5826 29.1218 19.6366 29.2951 19.741 29.4372L18.814 29.2602L18.2655 29.6474C18.2241 29.6836 18.1966 29.7332 18.1876 29.7877C18.1786 29.8422 18.1887 29.8982 18.2161 29.946H18.2051ZM26.3286 32.7719L26.5809 31.4336C26.5809 31.3562 26.6084 31.2622 26.6193 31.1848C26.6934 31.2169 26.7706 31.241 26.8497 31.2566C26.9373 31.2649 27.0254 31.2649 27.113 31.2566C27.2615 31.2569 27.408 31.2226 27.5412 31.1564C27.6744 31.0902 27.7906 30.9939 27.8809 30.8751L28.0784 30.6428L27.9138 30.4161C27.9138 30.4161 27.5463 29.8299 27.2721 29.4427L27.1185 29.2105C26.8113 28.7459 26.4219 28.1597 25.6485 28.1597H25.5772C25.4648 28.1651 25.3538 28.1875 25.2481 28.2261C25.0118 28.1114 24.7533 28.0509 24.4911 28.0491C24.2268 28.0547 23.9654 28.1052 23.7177 28.1984L23.5861 28.2372L22.138 28.0934C22.0787 28.0643 22.0278 28.0205 21.9899 27.9662V27.9662L22.3025 27.839C22.2148 26.7827 21.2055 26.1357 20.657 25.92C20.6322 25.8064 20.575 25.7026 20.4924 25.6214L20.1798 25.3227L19.9055 25.6545L19.7684 25.8204L17.7389 24.9799L19.0608 26.6389L18.5397 27.4353C18.5129 27.462 18.4915 27.4939 18.477 27.529C18.4624 27.5641 18.4549 27.6018 18.4549 27.6399C18.4549 27.678 18.4624 27.7156 18.477 27.7508C18.4915 27.7859 18.5129 27.8178 18.5397 27.8445L19.0882 28.2206L19.6368 28.0104H19.6916C19.6916 28.0934 19.6313 28.4307 19.6039 28.5247L18.6494 28.3588L17.6292 28.9118C17.4004 29.0774 17.2362 29.3183 17.1651 29.5931C17.094 29.8678 17.1204 30.1589 17.2398 30.4161L17.3549 30.6649L17.514 31.0188L17.8705 30.8695C17.8047 31.0451 17.7842 31.2347 17.8111 31.4205C17.8379 31.6062 17.9113 31.782 18.0241 31.9313L18.2381 32.2078L18.5233 32.5728L18.8414 32.23C19.0491 32.0226 19.2149 31.7765 19.3296 31.5055L19.3954 31.2843L19.2418 31.1129V31.0797L19.4174 30.7921L20.6844 31.0907L20.9696 31.1571L21.1232 30.9027L21.2055 30.7645C21.2055 30.7368 21.2055 30.7313 21.2823 30.7313H21.4194C21.8512 30.8181 22.2901 30.8644 22.7304 30.8695C23.0268 30.8864 23.3238 30.8508 23.608 30.7645L24.3101 31.5719L23.8932 32.8659V32.9434C23.585 32.9382 23.2792 32.9985 22.9956 33.1205C22.7121 33.2425 22.4573 33.4233 22.2477 33.6512C21.573 32.9765 21.0958 32.9046 19.2912 32.9046C17.1246 32.9046 15.66 31.6272 15.66 29.5865V24.6093H28.8244V29.5865C28.8527 30.3301 28.617 31.0595 28.1594 31.6435C27.7019 32.2274 27.0527 32.6276 26.3286 32.7719V32.7719ZM29.1809 16.5186C28.9586 17.0578 28.8341 17.6329 28.8134 18.2164V21.9438C28.58 21.8938 28.3692 21.7685 28.2128 21.5869C28.0564 21.4053 27.963 21.1772 27.9467 20.9373V20.7658H27.7822C27.4985 20.7412 27.2334 20.6134 27.0362 20.4064C26.7968 20.1261 26.6628 19.7698 26.6577 19.3999C26.5414 19.59 26.485 19.8111 26.4957 20.0342C26.5065 20.2573 26.584 20.4719 26.7181 20.6497C26.9314 20.9233 27.2425 21.102 27.5847 21.1474C27.6332 21.4595 27.7807 21.7474 28.0052 21.9677C28.2297 22.1881 28.5191 22.3291 28.8298 22.3696V24.1946H26.5261C26.2367 24.0458 26.0148 23.7911 25.9056 23.4826C25.7965 23.1742 25.8085 22.8353 25.9392 22.5355L26.0269 22.3364L25.824 22.259C25.5066 22.1479 25.2444 21.9168 25.0929 21.6144C24.9414 21.3121 24.9125 20.9621 25.0122 20.6386L25.0561 20.4727L24.9025 20.4008C24.6211 20.2353 24.3948 19.9893 24.2522 19.6939C24.1097 19.3986 24.0573 19.0672 24.1017 18.7418C23.9539 18.8925 23.8566 19.0859 23.8232 19.2951C23.7897 19.5043 23.8219 19.7188 23.9152 19.9087C23.8055 20.0359 23.6628 20.1852 23.5038 20.3511C23.2241 20.2919 22.9721 20.1399 22.7881 19.9193C22.6042 19.6988 22.4989 19.4224 22.489 19.1344V18.9962L22.3629 18.9464C22.1986 18.8971 22.0459 18.8149 21.914 18.7047C21.782 18.5944 21.6735 18.4584 21.595 18.3049C21.4892 18.0491 21.4699 17.7654 21.5401 17.4975C21.6485 17.5219 21.7585 17.5385 21.8692 17.5473C21.9807 17.553 22.0923 17.553 22.2038 17.5473C22.6428 17.5459 23.0766 17.4517 23.4772 17.2707C23.8778 17.0897 24.2363 16.826 24.5295 16.4965L29.1809 16.5186ZM25.6265 12.747L26.5261 13.3001L26.751 13.4328C26.2844 13.5611 25.8615 13.8154 25.5278 14.1683L25.4894 14.2015C25.4126 14.2844 25.3413 14.3674 25.27 14.4559L25.2261 14.5112C25.1566 14.5997 25.0908 14.6937 25.0286 14.7932L24.9957 14.843C24.9189 14.9536 24.8476 15.0753 24.7763 15.1969C24.5312 15.6883 24.1668 16.1092 23.717 16.4205C23.2672 16.7319 22.7467 16.9235 22.2038 16.9776C21.6609 16.9235 21.1404 16.7319 20.6906 16.4205C20.2408 16.1092 19.8764 15.6883 19.6313 15.1969C19.56 15.0753 19.4887 14.9591 19.4174 14.843L19.3735 14.7822L19.198 14.4946L19.1486 14.4338C19.0773 14.3453 19.006 14.2623 18.9347 14.1849L18.8963 14.1462C18.5626 13.7933 18.1396 13.5389 17.6731 13.4107L17.9035 13.2779L18.8085 12.7249L19.7355 12.1719L22.2093 13.5268L24.6831 12.2161L25.6265 12.747ZM24.4088 11.641L22.4397 12.6862V8.43347L25.1109 7.52099L24.4088 11.641ZM22.2148 7.98553L19.2857 6.80206C19.5325 6.2048 20.6844 5.69602 22.2148 5.69602C23.7451 5.69602 24.897 6.2048 25.1438 6.80206L22.2148 7.98553Z" fill="#222220"></path> </g> <defs> <clipPath id="clip0"> <rect width="164" height="40" fill="white"></rect> </clipPath> </defs> </svg> 