<svg width="94" height="33" fill="none" xmlns="http://www.w3.org/2000/svg"><path d="M27 4.4H4.8L6.4 0h22.2L27 4.4zm-.8 2.2H4L2.4 11h22.2l1.6-4.4zm-2.4 6.6H1.6L0 17.6h22.2l1.6-4.4z" fill="#009FE3"/><path d="M79.9 28.6h4c1.5 0 2.4-.4 3.1-1.2.3-.4.8-1.1.8-2.5s-.5-2.3-1.4-3c-.5-.4-1.3-.6-2.5-.6H80v7.3h-.1zM74.7 33V6.6h17.2L90.4 11H79.9v5.9h4.3c3.4 0 5.2.8 6.4 1.9 1 .8 2.6 2.7 2.6 6.3 0 3.6-1.7 5.5-3.1 6.5-1.6 1.1-3.4 1.5-6.9 1.5h-8.5V33zm-15.2 0V11h-7.6V6.6H73L71.5 11h-6.8v22h-5.2zM38.3 17.2h3c.9 0 1.4 0 1.8-.1 1.2-.4 2-1.5 2-3 0-1.8-.8-2.6-2-2.9-.5-.1-1-.2-2-.2h-2.8v6.2zm0 4.5v6.9H42c1.1 0 2.1-.1 2.8-.8.7-.7 1.1-1.6 1.1-2.7 0-.9-.2-1.7-.7-2.3-.8-1-1.7-1.2-3.4-1.2h-3.5v.1zm8.5-2.8c1 .5 2 1.1 2.5 1.5 1.6 1.3 2.2 3 2.2 5.2 0 3.6-1.9 6.2-5.1 7-1 .3-2 .4-3.8.4H33V6.6h8.5c1.7 0 2.9.1 4 .4 3.1.8 5.1 2.9 5.1 6.3 0 1.8-.6 3.3-1.7 4.3-.5.4-1.1.9-2.1 1.3z" fill="#123274"/></svg>